<mxfile host="65bd71144e">
    <diagram id="yXiccRbs3DKNl6Ph0mia" name="Core Schema">
        <mxGraphModel dx="2964" dy="1098" grid="0" gridSize="10" guides="1" tooltips="1" connect="1" arrows="1" fold="1" page="0" pageScale="1" pageWidth="850" pageHeight="1100" math="0" shadow="0">
            <root>
                <mxCell id="0"/>
                <mxCell id="1" parent="0"/>
                <mxCell id="506" style="edgeStyle=elbowEdgeStyle;jumpStyle=arc;jumpSize=10;elbow=vertical;html=1;strokeWidth=1;fontSize=17;startArrow=none;startFill=0;endArrow=none;endFill=0;startSize=12;endSize=12;dashed=1;fillColor=#f5f5f5;strokeColor=#666666;" edge="1" parent="1" source="499" target="312">
                    <mxGeometry relative="1" as="geometry">
                        <Array as="points">
                            <mxPoint x="-71" y="720"/>
                        </Array>
                    </mxGeometry>
                </mxCell>
                <mxCell id="507" style="edgeStyle=elbowEdgeStyle;jumpStyle=arc;jumpSize=10;elbow=vertical;html=1;strokeWidth=1;fontSize=17;startArrow=none;startFill=0;endArrow=none;endFill=0;startSize=12;endSize=12;dashed=1;fillColor=#f5f5f5;strokeColor=#666666;" edge="1" parent="1" source="499" target="67">
                    <mxGeometry relative="1" as="geometry"/>
                </mxCell>
                <mxCell id="2" value="Auth&lt;br&gt;Schema" style="shape=umlFrame;whiteSpace=wrap;html=1;width=95;height=35;fillColor=#f5f5f5;fontColor=#333333;strokeColor=#666666;" vertex="1" parent="1">
                    <mxGeometry x="269" y="5" width="479" height="309" as="geometry"/>
                </mxCell>
                <mxCell id="4" style="edgeStyle=none;html=1;endArrow=none;endFill=0;dashed=1;fillColor=#ffe6cc;strokeColor=#d79b00;" edge="1" parent="1" source="3" target="2">
                    <mxGeometry relative="1" as="geometry"/>
                </mxCell>
                <mxCell id="3" value="Supabase Default, dont touch..." style="shape=note;strokeWidth=2;fontSize=14;size=20;whiteSpace=wrap;html=1;fillColor=#fff2cc;strokeColor=#d6b656;fontColor=#666600;" vertex="1" parent="1">
                    <mxGeometry x="310" y="-82" width="208" height="41" as="geometry"/>
                </mxCell>
                <mxCell id="5" value="users" style="shape=table;startSize=30;container=1;collapsible=1;childLayout=tableLayout;fixedRows=1;rowLines=0;fontStyle=1;align=center;resizeLast=1;fillColor=#1ba1e2;strokeColor=#006EAF;fontColor=#ffffff;" vertex="1" parent="1">
                    <mxGeometry x="352" y="84.5" width="350" height="150" as="geometry"/>
                </mxCell>
                <mxCell id="6" value="" style="shape=tableRow;horizontal=0;startSize=0;swimlaneHead=0;swimlaneBody=0;fillColor=none;collapsible=0;dropTarget=0;points=[[0,0.5],[1,0.5]];portConstraint=eastwest;top=0;left=0;right=0;bottom=1;" vertex="1" parent="5">
                    <mxGeometry y="30" width="350" height="30" as="geometry"/>
                </mxCell>
                <mxCell id="7" value="PK" style="shape=partialRectangle;connectable=0;fillColor=none;top=0;left=0;bottom=0;right=0;fontStyle=1;overflow=hidden;" vertex="1" parent="6">
                    <mxGeometry width="30" height="30" as="geometry">
                        <mxRectangle width="30" height="30" as="alternateBounds"/>
                    </mxGeometry>
                </mxCell>
                <mxCell id="8" value="id" style="shape=partialRectangle;connectable=0;fillColor=none;top=0;left=0;bottom=0;right=0;align=left;spacingLeft=6;fontStyle=5;overflow=hidden;" vertex="1" parent="6">
                    <mxGeometry x="30" width="77.12500000000017" height="30" as="geometry">
                        <mxRectangle width="77.12500000000017" height="30" as="alternateBounds"/>
                    </mxGeometry>
                </mxCell>
                <mxCell id="18" value="uuid" style="shape=partialRectangle;connectable=0;fillColor=none;top=0;left=0;bottom=0;right=0;align=left;spacingLeft=6;fontStyle=5;overflow=hidden;" vertex="1" parent="6">
                    <mxGeometry x="107.12500000000017" width="58.3333333333332" height="30" as="geometry">
                        <mxRectangle width="58.3333333333332" height="30" as="alternateBounds"/>
                    </mxGeometry>
                </mxCell>
                <mxCell id="26" style="shape=partialRectangle;connectable=0;fillColor=none;top=0;left=0;bottom=0;right=0;align=left;spacingLeft=6;fontStyle=5;overflow=hidden;" vertex="1" parent="6">
                    <mxGeometry x="165.45833333333337" width="184.54166666666663" height="30" as="geometry">
                        <mxRectangle width="184.54166666666663" height="30" as="alternateBounds"/>
                    </mxGeometry>
                </mxCell>
                <mxCell id="9" value="" style="shape=tableRow;horizontal=0;startSize=0;swimlaneHead=0;swimlaneBody=0;fillColor=none;collapsible=0;dropTarget=0;points=[[0,0.5],[1,0.5]];portConstraint=eastwest;top=0;left=0;right=0;bottom=0;" vertex="1" parent="5">
                    <mxGeometry y="60" width="350" height="30" as="geometry"/>
                </mxCell>
                <mxCell id="10" value="" style="shape=partialRectangle;connectable=0;fillColor=none;top=0;left=0;bottom=0;right=0;editable=1;overflow=hidden;" vertex="1" parent="9">
                    <mxGeometry width="30" height="30" as="geometry">
                        <mxRectangle width="30" height="30" as="alternateBounds"/>
                    </mxGeometry>
                </mxCell>
                <mxCell id="11" value="Row 1" style="shape=partialRectangle;connectable=0;fillColor=none;top=0;left=0;bottom=0;right=0;align=left;spacingLeft=6;overflow=hidden;" vertex="1" parent="9">
                    <mxGeometry x="30" width="77.12500000000017" height="30" as="geometry">
                        <mxRectangle width="77.12500000000017" height="30" as="alternateBounds"/>
                    </mxGeometry>
                </mxCell>
                <mxCell id="19" style="shape=partialRectangle;connectable=0;fillColor=none;top=0;left=0;bottom=0;right=0;align=left;spacingLeft=6;overflow=hidden;" vertex="1" parent="9">
                    <mxGeometry x="107.12500000000017" width="58.3333333333332" height="30" as="geometry">
                        <mxRectangle width="58.3333333333332" height="30" as="alternateBounds"/>
                    </mxGeometry>
                </mxCell>
                <mxCell id="27" style="shape=partialRectangle;connectable=0;fillColor=none;top=0;left=0;bottom=0;right=0;align=left;spacingLeft=6;overflow=hidden;" vertex="1" parent="9">
                    <mxGeometry x="165.45833333333337" width="184.54166666666663" height="30" as="geometry">
                        <mxRectangle width="184.54166666666663" height="30" as="alternateBounds"/>
                    </mxGeometry>
                </mxCell>
                <mxCell id="12" value="" style="shape=tableRow;horizontal=0;startSize=0;swimlaneHead=0;swimlaneBody=0;fillColor=none;collapsible=0;dropTarget=0;points=[[0,0.5],[1,0.5]];portConstraint=eastwest;top=0;left=0;right=0;bottom=0;" vertex="1" parent="5">
                    <mxGeometry y="90" width="350" height="30" as="geometry"/>
                </mxCell>
                <mxCell id="13" value="" style="shape=partialRectangle;connectable=0;fillColor=none;top=0;left=0;bottom=0;right=0;editable=1;overflow=hidden;" vertex="1" parent="12">
                    <mxGeometry width="30" height="30" as="geometry">
                        <mxRectangle width="30" height="30" as="alternateBounds"/>
                    </mxGeometry>
                </mxCell>
                <mxCell id="14" value="Row 2" style="shape=partialRectangle;connectable=0;fillColor=none;top=0;left=0;bottom=0;right=0;align=left;spacingLeft=6;overflow=hidden;" vertex="1" parent="12">
                    <mxGeometry x="30" width="77.12500000000017" height="30" as="geometry">
                        <mxRectangle width="77.12500000000017" height="30" as="alternateBounds"/>
                    </mxGeometry>
                </mxCell>
                <mxCell id="20" style="shape=partialRectangle;connectable=0;fillColor=none;top=0;left=0;bottom=0;right=0;align=left;spacingLeft=6;overflow=hidden;" vertex="1" parent="12">
                    <mxGeometry x="107.12500000000017" width="58.3333333333332" height="30" as="geometry">
                        <mxRectangle width="58.3333333333332" height="30" as="alternateBounds"/>
                    </mxGeometry>
                </mxCell>
                <mxCell id="28" style="shape=partialRectangle;connectable=0;fillColor=none;top=0;left=0;bottom=0;right=0;align=left;spacingLeft=6;overflow=hidden;" vertex="1" parent="12">
                    <mxGeometry x="165.45833333333337" width="184.54166666666663" height="30" as="geometry">
                        <mxRectangle width="184.54166666666663" height="30" as="alternateBounds"/>
                    </mxGeometry>
                </mxCell>
                <mxCell id="15" value="" style="shape=tableRow;horizontal=0;startSize=0;swimlaneHead=0;swimlaneBody=0;fillColor=none;collapsible=0;dropTarget=0;points=[[0,0.5],[1,0.5]];portConstraint=eastwest;top=0;left=0;right=0;bottom=0;" vertex="1" parent="5">
                    <mxGeometry y="120" width="350" height="30" as="geometry"/>
                </mxCell>
                <mxCell id="16" value="" style="shape=partialRectangle;connectable=0;fillColor=none;top=0;left=0;bottom=0;right=0;editable=1;overflow=hidden;" vertex="1" parent="15">
                    <mxGeometry width="30" height="30" as="geometry">
                        <mxRectangle width="30" height="30" as="alternateBounds"/>
                    </mxGeometry>
                </mxCell>
                <mxCell id="17" value="Row 3" style="shape=partialRectangle;connectable=0;fillColor=none;top=0;left=0;bottom=0;right=0;align=left;spacingLeft=6;overflow=hidden;" vertex="1" parent="15">
                    <mxGeometry x="30" width="77.12500000000017" height="30" as="geometry">
                        <mxRectangle width="77.12500000000017" height="30" as="alternateBounds"/>
                    </mxGeometry>
                </mxCell>
                <mxCell id="21" style="shape=partialRectangle;connectable=0;fillColor=none;top=0;left=0;bottom=0;right=0;align=left;spacingLeft=6;overflow=hidden;" vertex="1" parent="15">
                    <mxGeometry x="107.12500000000017" width="58.3333333333332" height="30" as="geometry">
                        <mxRectangle width="58.3333333333332" height="30" as="alternateBounds"/>
                    </mxGeometry>
                </mxCell>
                <mxCell id="29" style="shape=partialRectangle;connectable=0;fillColor=none;top=0;left=0;bottom=0;right=0;align=left;spacingLeft=6;overflow=hidden;" vertex="1" parent="15">
                    <mxGeometry x="165.45833333333337" width="184.54166666666663" height="30" as="geometry">
                        <mxRectangle width="184.54166666666663" height="30" as="alternateBounds"/>
                    </mxGeometry>
                </mxCell>
                <mxCell id="51" style="edgeStyle=elbowEdgeStyle;html=1;endArrow=ERone;endFill=0;startArrow=ERone;startFill=0;endSize=12;startSize=12;strokeWidth=2;jumpStyle=arc;jumpSize=10;" edge="1" parent="1" source="30" target="5">
                    <mxGeometry relative="1" as="geometry">
                        <Array as="points">
                            <mxPoint x="656" y="646"/>
                        </Array>
                    </mxGeometry>
                </mxCell>
                <mxCell id="98" style="edgeStyle=elbowEdgeStyle;jumpStyle=arc;jumpSize=10;html=1;strokeWidth=2;startArrow=ERzeroToOne;startFill=0;endArrow=ERzeroToMany;endFill=0;startSize=12;endSize=12;" edge="1" parent="1" source="30" target="67">
                    <mxGeometry relative="1" as="geometry"/>
                </mxCell>
                <mxCell id="333" style="edgeStyle=elbowEdgeStyle;jumpStyle=arc;jumpSize=10;html=1;strokeWidth=2;fontSize=42;startArrow=ERzeroToOne;startFill=0;endArrow=ERzeroToMany;endFill=0;startSize=12;endSize=12;" edge="1" parent="1" source="30" target="312">
                    <mxGeometry relative="1" as="geometry">
                        <Array as="points">
                            <mxPoint x="225" y="1073"/>
                            <mxPoint x="115" y="862"/>
                        </Array>
                    </mxGeometry>
                </mxCell>
                <mxCell id="30" value="accounts" style="shape=table;startSize=30;container=1;collapsible=1;childLayout=tableLayout;fixedRows=1;rowLines=0;fontStyle=1;align=center;resizeLast=1;fillColor=#1ba1e2;strokeColor=#006EAF;fontColor=#ffffff;fontSize=17;" vertex="1" parent="1">
                    <mxGeometry x="309" y="1008" width="472" height="209" as="geometry"/>
                </mxCell>
                <mxCell id="31" value="" style="shape=tableRow;horizontal=0;startSize=0;swimlaneHead=0;swimlaneBody=0;fillColor=none;collapsible=0;dropTarget=0;points=[[0,0.5],[1,0.5]];portConstraint=eastwest;top=0;left=0;right=0;bottom=1;" vertex="1" parent="30">
                    <mxGeometry y="30" width="472" height="30" as="geometry"/>
                </mxCell>
                <mxCell id="32" value="PK FK" style="shape=partialRectangle;connectable=0;fillColor=none;top=0;left=0;bottom=0;right=0;fontStyle=1;overflow=hidden;" vertex="1" parent="31">
                    <mxGeometry width="77.29166666666669" height="30" as="geometry">
                        <mxRectangle width="77.29166666666669" height="30" as="alternateBounds"/>
                    </mxGeometry>
                </mxCell>
                <mxCell id="33" value="id" style="shape=partialRectangle;connectable=0;fillColor=none;top=0;left=0;bottom=0;right=0;align=left;spacingLeft=6;fontStyle=5;overflow=hidden;" vertex="1" parent="31">
                    <mxGeometry x="77.29166666666669" width="105.83333333333343" height="30" as="geometry">
                        <mxRectangle width="105.83333333333343" height="30" as="alternateBounds"/>
                    </mxGeometry>
                </mxCell>
                <mxCell id="34" value="uuid" style="shape=partialRectangle;connectable=0;fillColor=none;top=0;left=0;bottom=0;right=0;align=left;spacingLeft=6;fontStyle=5;overflow=hidden;" vertex="1" parent="31">
                    <mxGeometry x="183.1250000000001" width="65.50000000000011" height="30" as="geometry">
                        <mxRectangle width="65.50000000000011" height="30" as="alternateBounds"/>
                    </mxGeometry>
                </mxCell>
                <mxCell id="35" value="" style="shape=partialRectangle;connectable=0;fillColor=none;top=0;left=0;bottom=0;right=0;align=left;spacingLeft=6;fontStyle=5;overflow=hidden;" vertex="1" parent="31">
                    <mxGeometry x="248.62500000000023" width="223.37499999999977" height="30" as="geometry">
                        <mxRectangle width="223.37499999999977" height="30" as="alternateBounds"/>
                    </mxGeometry>
                </mxCell>
                <mxCell id="41" value="" style="shape=tableRow;horizontal=0;startSize=0;swimlaneHead=0;swimlaneBody=0;fillColor=none;collapsible=0;dropTarget=0;points=[[0,0.5],[1,0.5]];portConstraint=eastwest;top=0;left=0;right=0;bottom=0;" vertex="1" parent="30">
                    <mxGeometry y="60" width="472" height="29" as="geometry"/>
                </mxCell>
                <mxCell id="42" value="UQ" style="shape=partialRectangle;connectable=0;fillColor=none;top=0;left=0;bottom=0;right=0;editable=1;overflow=hidden;" vertex="1" parent="41">
                    <mxGeometry width="77.29166666666669" height="29" as="geometry">
                        <mxRectangle width="77.29166666666669" height="29" as="alternateBounds"/>
                    </mxGeometry>
                </mxCell>
                <mxCell id="43" value="username" style="shape=partialRectangle;connectable=0;fillColor=none;top=0;left=0;bottom=0;right=0;align=left;spacingLeft=6;overflow=hidden;" vertex="1" parent="41">
                    <mxGeometry x="77.29166666666669" width="105.83333333333343" height="29" as="geometry">
                        <mxRectangle width="105.83333333333343" height="29" as="alternateBounds"/>
                    </mxGeometry>
                </mxCell>
                <mxCell id="44" value="varchar" style="shape=partialRectangle;connectable=0;fillColor=none;top=0;left=0;bottom=0;right=0;align=left;spacingLeft=6;overflow=hidden;" vertex="1" parent="41">
                    <mxGeometry x="183.1250000000001" width="65.50000000000011" height="29" as="geometry">
                        <mxRectangle width="65.50000000000011" height="29" as="alternateBounds"/>
                    </mxGeometry>
                </mxCell>
                <mxCell id="45" style="shape=partialRectangle;connectable=0;fillColor=none;top=0;left=0;bottom=0;right=0;align=left;spacingLeft=6;overflow=hidden;" vertex="1" parent="41">
                    <mxGeometry x="248.62500000000023" width="223.37499999999977" height="29" as="geometry">
                        <mxRectangle width="223.37499999999977" height="29" as="alternateBounds"/>
                    </mxGeometry>
                </mxCell>
                <mxCell id="46" value="" style="shape=tableRow;horizontal=0;startSize=0;swimlaneHead=0;swimlaneBody=0;fillColor=none;collapsible=0;dropTarget=0;points=[[0,0.5],[1,0.5]];portConstraint=eastwest;top=0;left=0;right=0;bottom=0;" vertex="1" parent="30">
                    <mxGeometry y="89" width="472" height="30" as="geometry"/>
                </mxCell>
                <mxCell id="47" value="" style="shape=partialRectangle;connectable=0;fillColor=none;top=0;left=0;bottom=0;right=0;editable=1;overflow=hidden;" vertex="1" parent="46">
                    <mxGeometry width="77.29166666666669" height="30" as="geometry">
                        <mxRectangle width="77.29166666666669" height="30" as="alternateBounds"/>
                    </mxGeometry>
                </mxCell>
                <mxCell id="48" value="display_name" style="shape=partialRectangle;connectable=0;fillColor=none;top=0;left=0;bottom=0;right=0;align=left;spacingLeft=6;overflow=hidden;" vertex="1" parent="46">
                    <mxGeometry x="77.29166666666669" width="105.83333333333343" height="30" as="geometry">
                        <mxRectangle width="105.83333333333343" height="30" as="alternateBounds"/>
                    </mxGeometry>
                </mxCell>
                <mxCell id="49" value="varchar" style="shape=partialRectangle;connectable=0;fillColor=none;top=0;left=0;bottom=0;right=0;align=left;spacingLeft=6;overflow=hidden;" vertex="1" parent="46">
                    <mxGeometry x="183.1250000000001" width="65.50000000000011" height="30" as="geometry">
                        <mxRectangle width="65.50000000000011" height="30" as="alternateBounds"/>
                    </mxGeometry>
                </mxCell>
                <mxCell id="50" style="shape=partialRectangle;connectable=0;fillColor=none;top=0;left=0;bottom=0;right=0;align=left;spacingLeft=6;overflow=hidden;" vertex="1" parent="46">
                    <mxGeometry x="248.62500000000023" width="223.37499999999977" height="30" as="geometry">
                        <mxRectangle width="223.37499999999977" height="30" as="alternateBounds"/>
                    </mxGeometry>
                </mxCell>
                <mxCell id="62" style="shape=tableRow;horizontal=0;startSize=0;swimlaneHead=0;swimlaneBody=0;fillColor=none;collapsible=0;dropTarget=0;points=[[0,0.5],[1,0.5]];portConstraint=eastwest;top=0;left=0;right=0;bottom=0;" vertex="1" parent="30">
                    <mxGeometry y="119" width="472" height="30" as="geometry"/>
                </mxCell>
                <mxCell id="63" style="shape=partialRectangle;connectable=0;fillColor=none;top=0;left=0;bottom=0;right=0;editable=1;overflow=hidden;" vertex="1" parent="62">
                    <mxGeometry width="77.29166666666669" height="30" as="geometry">
                        <mxRectangle width="77.29166666666669" height="30" as="alternateBounds"/>
                    </mxGeometry>
                </mxCell>
                <mxCell id="64" value="description" style="shape=partialRectangle;connectable=0;fillColor=none;top=0;left=0;bottom=0;right=0;align=left;spacingLeft=6;overflow=hidden;" vertex="1" parent="62">
                    <mxGeometry x="77.29166666666669" width="105.83333333333343" height="30" as="geometry">
                        <mxRectangle width="105.83333333333343" height="30" as="alternateBounds"/>
                    </mxGeometry>
                </mxCell>
                <mxCell id="65" value="text" style="shape=partialRectangle;connectable=0;fillColor=none;top=0;left=0;bottom=0;right=0;align=left;spacingLeft=6;overflow=hidden;" vertex="1" parent="62">
                    <mxGeometry x="183.1250000000001" width="65.50000000000011" height="30" as="geometry">
                        <mxRectangle width="65.50000000000011" height="30" as="alternateBounds"/>
                    </mxGeometry>
                </mxCell>
                <mxCell id="66" style="shape=partialRectangle;connectable=0;fillColor=none;top=0;left=0;bottom=0;right=0;align=left;spacingLeft=6;overflow=hidden;" vertex="1" parent="62">
                    <mxGeometry x="248.62500000000023" width="223.37499999999977" height="30" as="geometry">
                        <mxRectangle width="223.37499999999977" height="30" as="alternateBounds"/>
                    </mxGeometry>
                </mxCell>
                <mxCell id="57" style="shape=tableRow;horizontal=0;startSize=0;swimlaneHead=0;swimlaneBody=0;fillColor=none;collapsible=0;dropTarget=0;points=[[0,0.5],[1,0.5]];portConstraint=eastwest;top=0;left=0;right=0;bottom=0;" vertex="1" parent="30">
                    <mxGeometry y="149" width="472" height="30" as="geometry"/>
                </mxCell>
                <mxCell id="58" style="shape=partialRectangle;connectable=0;fillColor=none;top=0;left=0;bottom=0;right=0;editable=1;overflow=hidden;" vertex="1" parent="57">
                    <mxGeometry width="77.29166666666669" height="30" as="geometry">
                        <mxRectangle width="77.29166666666669" height="30" as="alternateBounds"/>
                    </mxGeometry>
                </mxCell>
                <mxCell id="59" value="profile_picture_url" style="shape=partialRectangle;connectable=0;fillColor=none;top=0;left=0;bottom=0;right=0;align=left;spacingLeft=6;overflow=hidden;" vertex="1" parent="57">
                    <mxGeometry x="77.29166666666669" width="105.83333333333343" height="30" as="geometry">
                        <mxRectangle width="105.83333333333343" height="30" as="alternateBounds"/>
                    </mxGeometry>
                </mxCell>
                <mxCell id="60" value="text?" style="shape=partialRectangle;connectable=0;fillColor=none;top=0;left=0;bottom=0;right=0;align=left;spacingLeft=6;overflow=hidden;" vertex="1" parent="57">
                    <mxGeometry x="183.1250000000001" width="65.50000000000011" height="30" as="geometry">
                        <mxRectangle width="65.50000000000011" height="30" as="alternateBounds"/>
                    </mxGeometry>
                </mxCell>
                <mxCell id="61" style="shape=partialRectangle;connectable=0;fillColor=none;top=0;left=0;bottom=0;right=0;align=left;spacingLeft=6;overflow=hidden;" vertex="1" parent="57">
                    <mxGeometry x="248.62500000000023" width="223.37499999999977" height="30" as="geometry">
                        <mxRectangle width="223.37499999999977" height="30" as="alternateBounds"/>
                    </mxGeometry>
                </mxCell>
                <mxCell id="52" style="shape=tableRow;horizontal=0;startSize=0;swimlaneHead=0;swimlaneBody=0;fillColor=none;collapsible=0;dropTarget=0;points=[[0,0.5],[1,0.5]];portConstraint=eastwest;top=0;left=0;right=0;bottom=0;" vertex="1" parent="30">
                    <mxGeometry y="179" width="472" height="30" as="geometry"/>
                </mxCell>
                <mxCell id="53" style="shape=partialRectangle;connectable=0;fillColor=none;top=0;left=0;bottom=0;right=0;editable=1;overflow=hidden;" vertex="1" parent="52">
                    <mxGeometry width="77.29166666666669" height="30" as="geometry">
                        <mxRectangle width="77.29166666666669" height="30" as="alternateBounds"/>
                    </mxGeometry>
                </mxCell>
                <mxCell id="54" style="shape=partialRectangle;connectable=0;fillColor=none;top=0;left=0;bottom=0;right=0;align=left;spacingLeft=6;overflow=hidden;" vertex="1" parent="52">
                    <mxGeometry x="77.29166666666669" width="105.83333333333343" height="30" as="geometry">
                        <mxRectangle width="105.83333333333343" height="30" as="alternateBounds"/>
                    </mxGeometry>
                </mxCell>
                <mxCell id="55" style="shape=partialRectangle;connectable=0;fillColor=none;top=0;left=0;bottom=0;right=0;align=left;spacingLeft=6;overflow=hidden;" vertex="1" parent="52">
                    <mxGeometry x="183.1250000000001" width="65.50000000000011" height="30" as="geometry">
                        <mxRectangle width="65.50000000000011" height="30" as="alternateBounds"/>
                    </mxGeometry>
                </mxCell>
                <mxCell id="56" style="shape=partialRectangle;connectable=0;fillColor=none;top=0;left=0;bottom=0;right=0;align=left;spacingLeft=6;overflow=hidden;" vertex="1" parent="52">
                    <mxGeometry x="248.62500000000023" width="223.37499999999977" height="30" as="geometry">
                        <mxRectangle width="223.37499999999977" height="30" as="alternateBounds"/>
                    </mxGeometry>
                </mxCell>
                <mxCell id="67" value="flashcard_contributors" style="shape=table;startSize=30;container=1;collapsible=1;childLayout=tableLayout;fixedRows=1;rowLines=0;fontStyle=1;align=center;resizeLast=1;fillColor=#1ba1e2;strokeColor=#006EAF;fontColor=#ffffff;" vertex="1" parent="1">
                    <mxGeometry x="-289" y="1301" width="375.7500000000001" height="149" as="geometry"/>
                </mxCell>
                <mxCell id="99" style="shape=tableRow;horizontal=0;startSize=0;swimlaneHead=0;swimlaneBody=0;fillColor=none;collapsible=0;dropTarget=0;points=[[0,0.5],[1,0.5]];portConstraint=eastwest;top=0;left=0;right=0;bottom=1;" vertex="1" parent="67">
                    <mxGeometry y="30" width="375.7500000000001" height="30" as="geometry"/>
                </mxCell>
                <mxCell id="100" value="PK" style="shape=partialRectangle;connectable=0;fillColor=none;top=0;left=0;bottom=0;right=0;fontStyle=1;overflow=hidden;" vertex="1" parent="99">
                    <mxGeometry width="77.29166666666669" height="30" as="geometry">
                        <mxRectangle width="77.29166666666669" height="30" as="alternateBounds"/>
                    </mxGeometry>
                </mxCell>
                <mxCell id="101" value="id" style="shape=partialRectangle;connectable=0;fillColor=none;top=0;left=0;bottom=0;right=0;align=left;spacingLeft=6;fontStyle=5;overflow=hidden;" vertex="1" parent="99">
                    <mxGeometry x="77.29166666666669" width="105.83333333333343" height="30" as="geometry">
                        <mxRectangle width="105.83333333333343" height="30" as="alternateBounds"/>
                    </mxGeometry>
                </mxCell>
                <mxCell id="102" value="uuid" style="shape=partialRectangle;connectable=0;fillColor=none;top=0;left=0;bottom=0;right=0;align=left;spacingLeft=6;fontStyle=5;overflow=hidden;" vertex="1" parent="99">
                    <mxGeometry x="183.1250000000001" width="101.625" height="30" as="geometry">
                        <mxRectangle width="101.625" height="30" as="alternateBounds"/>
                    </mxGeometry>
                </mxCell>
                <mxCell id="103" style="shape=partialRectangle;connectable=0;fillColor=none;top=0;left=0;bottom=0;right=0;align=left;spacingLeft=6;fontStyle=5;overflow=hidden;" vertex="1" parent="99">
                    <mxGeometry x="284.7500000000001" width="91" height="30" as="geometry">
                        <mxRectangle width="91" height="30" as="alternateBounds"/>
                    </mxGeometry>
                </mxCell>
                <mxCell id="104" style="shape=tableRow;horizontal=0;startSize=0;swimlaneHead=0;swimlaneBody=0;fillColor=none;collapsible=0;dropTarget=0;points=[[0,0.5],[1,0.5]];portConstraint=eastwest;top=0;left=0;right=0;bottom=1;" vertex="1" parent="67">
                    <mxGeometry y="60" width="375.7500000000001" height="30" as="geometry"/>
                </mxCell>
                <mxCell id="105" value="FK" style="shape=partialRectangle;connectable=0;fillColor=none;top=0;left=0;bottom=0;right=0;fontStyle=1;overflow=hidden;" vertex="1" parent="104">
                    <mxGeometry width="77.29166666666669" height="30" as="geometry">
                        <mxRectangle width="77.29166666666669" height="30" as="alternateBounds"/>
                    </mxGeometry>
                </mxCell>
                <mxCell id="106" value="account_id" style="shape=partialRectangle;connectable=0;fillColor=none;top=0;left=0;bottom=0;right=0;align=left;spacingLeft=6;fontStyle=5;overflow=hidden;" vertex="1" parent="104">
                    <mxGeometry x="77.29166666666669" width="105.83333333333343" height="30" as="geometry">
                        <mxRectangle width="105.83333333333343" height="30" as="alternateBounds"/>
                    </mxGeometry>
                </mxCell>
                <mxCell id="107" value="uuid?" style="shape=partialRectangle;connectable=0;fillColor=none;top=0;left=0;bottom=0;right=0;align=left;spacingLeft=6;fontStyle=5;overflow=hidden;" vertex="1" parent="104">
                    <mxGeometry x="183.1250000000001" width="101.625" height="30" as="geometry">
                        <mxRectangle width="101.625" height="30" as="alternateBounds"/>
                    </mxGeometry>
                </mxCell>
                <mxCell id="108" value="Cascade Null" style="shape=partialRectangle;connectable=0;fillColor=none;top=0;left=0;bottom=0;right=0;align=left;spacingLeft=6;fontStyle=5;overflow=hidden;" vertex="1" parent="104">
                    <mxGeometry x="284.7500000000001" width="91" height="30" as="geometry">
                        <mxRectangle width="91" height="30" as="alternateBounds"/>
                    </mxGeometry>
                </mxCell>
                <mxCell id="68" value="" style="shape=tableRow;horizontal=0;startSize=0;swimlaneHead=0;swimlaneBody=0;fillColor=none;collapsible=0;dropTarget=0;points=[[0,0.5],[1,0.5]];portConstraint=eastwest;top=0;left=0;right=0;bottom=1;" vertex="1" parent="67">
                    <mxGeometry y="90" width="375.7500000000001" height="30" as="geometry"/>
                </mxCell>
                <mxCell id="69" value="FK" style="shape=partialRectangle;connectable=0;fillColor=none;top=0;left=0;bottom=0;right=0;fontStyle=1;overflow=hidden;" vertex="1" parent="68">
                    <mxGeometry width="77.29166666666669" height="30" as="geometry">
                        <mxRectangle width="77.29166666666669" height="30" as="alternateBounds"/>
                    </mxGeometry>
                </mxCell>
                <mxCell id="70" value="flashcard_id" style="shape=partialRectangle;connectable=0;fillColor=none;top=0;left=0;bottom=0;right=0;align=left;spacingLeft=6;fontStyle=5;overflow=hidden;" vertex="1" parent="68">
                    <mxGeometry x="77.29166666666669" width="105.83333333333343" height="30" as="geometry">
                        <mxRectangle width="105.83333333333343" height="30" as="alternateBounds"/>
                    </mxGeometry>
                </mxCell>
                <mxCell id="71" value="uuid" style="shape=partialRectangle;connectable=0;fillColor=none;top=0;left=0;bottom=0;right=0;align=left;spacingLeft=6;fontStyle=5;overflow=hidden;" vertex="1" parent="68">
                    <mxGeometry x="183.1250000000001" width="101.625" height="30" as="geometry">
                        <mxRectangle width="101.625" height="30" as="alternateBounds"/>
                    </mxGeometry>
                </mxCell>
                <mxCell id="72" value="" style="shape=partialRectangle;connectable=0;fillColor=none;top=0;left=0;bottom=0;right=0;align=left;spacingLeft=6;fontStyle=5;overflow=hidden;" vertex="1" parent="68">
                    <mxGeometry x="284.7500000000001" width="91" height="30" as="geometry">
                        <mxRectangle width="91" height="30" as="alternateBounds"/>
                    </mxGeometry>
                </mxCell>
                <mxCell id="73" value="" style="shape=tableRow;horizontal=0;startSize=0;swimlaneHead=0;swimlaneBody=0;fillColor=none;collapsible=0;dropTarget=0;points=[[0,0.5],[1,0.5]];portConstraint=eastwest;top=0;left=0;right=0;bottom=0;" vertex="1" parent="67">
                    <mxGeometry y="120" width="375.7500000000001" height="29" as="geometry"/>
                </mxCell>
                <mxCell id="74" value="" style="shape=partialRectangle;connectable=0;fillColor=none;top=0;left=0;bottom=0;right=0;editable=1;overflow=hidden;" vertex="1" parent="73">
                    <mxGeometry width="77.29166666666669" height="29" as="geometry">
                        <mxRectangle width="77.29166666666669" height="29" as="alternateBounds"/>
                    </mxGeometry>
                </mxCell>
                <mxCell id="75" value="role" style="shape=partialRectangle;connectable=0;fillColor=none;top=0;left=0;bottom=0;right=0;align=left;spacingLeft=6;overflow=hidden;" vertex="1" parent="73">
                    <mxGeometry x="77.29166666666669" width="105.83333333333343" height="29" as="geometry">
                        <mxRectangle width="105.83333333333343" height="29" as="alternateBounds"/>
                    </mxGeometry>
                </mxCell>
                <mxCell id="76" value="ContributorRole" style="shape=partialRectangle;connectable=0;fillColor=none;top=0;left=0;bottom=0;right=0;align=left;spacingLeft=6;overflow=hidden;" vertex="1" parent="73">
                    <mxGeometry x="183.1250000000001" width="101.625" height="29" as="geometry">
                        <mxRectangle width="101.625" height="29" as="alternateBounds"/>
                    </mxGeometry>
                </mxCell>
                <mxCell id="77" value="" style="shape=partialRectangle;connectable=0;fillColor=none;top=0;left=0;bottom=0;right=0;align=left;spacingLeft=6;overflow=hidden;" vertex="1" parent="73">
                    <mxGeometry x="284.7500000000001" width="91" height="29" as="geometry">
                        <mxRectangle width="91" height="29" as="alternateBounds"/>
                    </mxGeometry>
                </mxCell>
                <mxCell id="414" style="edgeStyle=orthogonalEdgeStyle;jumpStyle=arc;jumpSize=10;html=1;strokeWidth=1;fontSize=17;startArrow=none;startFill=0;endArrow=none;endFill=0;startSize=12;endSize=12;dashed=1;fillColor=#f5f5f5;strokeColor=#666666;" edge="1" parent="1" source="110" target="270">
                    <mxGeometry relative="1" as="geometry">
                        <Array as="points">
                            <mxPoint x="-1239" y="888"/>
                        </Array>
                    </mxGeometry>
                </mxCell>
                <mxCell id="415" style="edgeStyle=orthogonalEdgeStyle;jumpStyle=arc;jumpSize=10;html=1;strokeWidth=1;fontSize=17;startArrow=none;startFill=0;endArrow=none;endFill=0;startSize=12;endSize=12;elbow=vertical;dashed=1;fillColor=#f5f5f5;strokeColor=#666666;" edge="1" parent="1" source="110" target="156">
                    <mxGeometry relative="1" as="geometry">
                        <Array as="points">
                            <mxPoint x="-1265" y="1458"/>
                        </Array>
                    </mxGeometry>
                </mxCell>
                <mxCell id="110" value="&lt;&lt;Enum&gt;&gt;&#10;VisibilityState" style="shape=table;startSize=35;container=1;collapsible=1;childLayout=tableLayout;fixedRows=1;rowLines=0;fontStyle=1;align=center;resizeLast=1;" vertex="1" parent="1">
                    <mxGeometry x="-1381" y="925" width="157" height="123" as="geometry"/>
                </mxCell>
                <mxCell id="126" value="" style="shape=tableRow;horizontal=0;startSize=0;swimlaneHead=0;swimlaneBody=0;fillColor=none;collapsible=0;dropTarget=0;points=[[0,0.5],[1,0.5]];portConstraint=eastwest;top=0;left=0;right=0;bottom=0;" vertex="1" parent="110">
                    <mxGeometry y="35" width="157" height="29" as="geometry"/>
                </mxCell>
                <mxCell id="127" value="DRAFT" style="shape=partialRectangle;connectable=0;fillColor=none;top=0;left=0;bottom=0;right=0;editable=1;overflow=hidden;" vertex="1" parent="126">
                    <mxGeometry width="157" height="29" as="geometry">
                        <mxRectangle width="157" height="29" as="alternateBounds"/>
                    </mxGeometry>
                </mxCell>
                <mxCell id="243" style="shape=tableRow;horizontal=0;startSize=0;swimlaneHead=0;swimlaneBody=0;fillColor=none;collapsible=0;dropTarget=0;points=[[0,0.5],[1,0.5]];portConstraint=eastwest;top=0;left=0;right=0;bottom=0;" vertex="1" parent="110">
                    <mxGeometry y="64" width="157" height="29" as="geometry"/>
                </mxCell>
                <mxCell id="244" value="UNLISTED" style="shape=partialRectangle;connectable=0;fillColor=none;top=0;left=0;bottom=0;right=0;editable=1;overflow=hidden;" vertex="1" parent="243">
                    <mxGeometry width="157" height="29" as="geometry">
                        <mxRectangle width="157" height="29" as="alternateBounds"/>
                    </mxGeometry>
                </mxCell>
                <mxCell id="131" value="" style="shape=tableRow;horizontal=0;startSize=0;swimlaneHead=0;swimlaneBody=0;fillColor=none;collapsible=0;dropTarget=0;points=[[0,0.5],[1,0.5]];portConstraint=eastwest;top=0;left=0;right=0;bottom=0;" vertex="1" parent="110">
                    <mxGeometry y="93" width="157" height="30" as="geometry"/>
                </mxCell>
                <mxCell id="132" value="PUBLIC" style="shape=partialRectangle;connectable=0;fillColor=none;top=0;left=0;bottom=0;right=0;editable=1;overflow=hidden;" vertex="1" parent="131">
                    <mxGeometry width="157" height="30" as="geometry">
                        <mxRectangle width="157" height="30" as="alternateBounds"/>
                    </mxGeometry>
                </mxCell>
                <mxCell id="337" style="edgeStyle=elbowEdgeStyle;jumpStyle=arc;jumpSize=10;html=1;strokeWidth=2;fontSize=42;startArrow=ERone;startFill=0;endArrow=ERoneToMany;endFill=0;startSize=12;endSize=12;" edge="1" parent="1" source="156" target="67">
                    <mxGeometry relative="1" as="geometry"/>
                </mxCell>
                <mxCell id="156" value="flashcards" style="shape=table;startSize=30;container=1;collapsible=1;childLayout=tableLayout;fixedRows=1;rowLines=0;fontStyle=1;align=center;resizeLast=1;fillColor=#1ba1e2;strokeColor=#006EAF;fontColor=#ffffff;fontSize=16;" vertex="1" parent="1">
                    <mxGeometry x="-742" y="1324" width="295" height="167" as="geometry"/>
                </mxCell>
                <mxCell id="157" style="shape=tableRow;horizontal=0;startSize=0;swimlaneHead=0;swimlaneBody=0;fillColor=none;collapsible=0;dropTarget=0;points=[[0,0.5],[1,0.5]];portConstraint=eastwest;top=0;left=0;right=0;bottom=1;" vertex="1" parent="156">
                    <mxGeometry y="30" width="295" height="30" as="geometry"/>
                </mxCell>
                <mxCell id="158" value="PK" style="shape=partialRectangle;connectable=0;fillColor=none;top=0;left=0;bottom=0;right=0;fontStyle=1;overflow=hidden;" vertex="1" parent="157">
                    <mxGeometry width="77.29166666666669" height="30" as="geometry">
                        <mxRectangle width="77.29166666666669" height="30" as="alternateBounds"/>
                    </mxGeometry>
                </mxCell>
                <mxCell id="159" value="id" style="shape=partialRectangle;connectable=0;fillColor=none;top=0;left=0;bottom=0;right=0;align=left;spacingLeft=6;fontStyle=5;overflow=hidden;" vertex="1" parent="157">
                    <mxGeometry x="77.29166666666669" width="115.60488505747094" height="30" as="geometry">
                        <mxRectangle width="115.60488505747094" height="30" as="alternateBounds"/>
                    </mxGeometry>
                </mxCell>
                <mxCell id="160" value="uuid" style="shape=partialRectangle;connectable=0;fillColor=none;top=0;left=0;bottom=0;right=0;align=left;spacingLeft=6;fontStyle=5;overflow=hidden;" vertex="1" parent="157">
                    <mxGeometry x="192.89655172413762" width="82.10344827586238" height="30" as="geometry">
                        <mxRectangle width="82.10344827586238" height="30" as="alternateBounds"/>
                    </mxGeometry>
                </mxCell>
                <mxCell id="161" style="shape=partialRectangle;connectable=0;fillColor=none;top=0;left=0;bottom=0;right=0;align=left;spacingLeft=6;fontStyle=5;overflow=hidden;" vertex="1" parent="157">
                    <mxGeometry x="275" width="20" height="30" as="geometry">
                        <mxRectangle width="20" height="30" as="alternateBounds"/>
                    </mxGeometry>
                </mxCell>
                <mxCell id="172" value="" style="shape=tableRow;horizontal=0;startSize=0;swimlaneHead=0;swimlaneBody=0;fillColor=none;collapsible=0;dropTarget=0;points=[[0,0.5],[1,0.5]];portConstraint=eastwest;top=0;left=0;right=0;bottom=0;" vertex="1" parent="156">
                    <mxGeometry y="60" width="295" height="29" as="geometry"/>
                </mxCell>
                <mxCell id="173" value="" style="shape=partialRectangle;connectable=0;fillColor=none;top=0;left=0;bottom=0;right=0;editable=1;overflow=hidden;" vertex="1" parent="172">
                    <mxGeometry width="77.29166666666669" height="29" as="geometry">
                        <mxRectangle width="77.29166666666669" height="29" as="alternateBounds"/>
                    </mxGeometry>
                </mxCell>
                <mxCell id="174" value="title" style="shape=partialRectangle;connectable=0;fillColor=none;top=0;left=0;bottom=0;right=0;align=left;spacingLeft=6;overflow=hidden;" vertex="1" parent="172">
                    <mxGeometry x="77.29166666666669" width="115.60488505747094" height="29" as="geometry">
                        <mxRectangle width="115.60488505747094" height="29" as="alternateBounds"/>
                    </mxGeometry>
                </mxCell>
                <mxCell id="175" value="varchar" style="shape=partialRectangle;connectable=0;fillColor=none;top=0;left=0;bottom=0;right=0;align=left;spacingLeft=6;overflow=hidden;" vertex="1" parent="172">
                    <mxGeometry x="192.89655172413762" width="82.10344827586238" height="29" as="geometry">
                        <mxRectangle width="82.10344827586238" height="29" as="alternateBounds"/>
                    </mxGeometry>
                </mxCell>
                <mxCell id="176" value="" style="shape=partialRectangle;connectable=0;fillColor=none;top=0;left=0;bottom=0;right=0;align=left;spacingLeft=6;overflow=hidden;" vertex="1" parent="172">
                    <mxGeometry x="275" width="20" height="29" as="geometry">
                        <mxRectangle width="20" height="29" as="alternateBounds"/>
                    </mxGeometry>
                </mxCell>
                <mxCell id="208" style="shape=tableRow;horizontal=0;startSize=0;swimlaneHead=0;swimlaneBody=0;fillColor=none;collapsible=0;dropTarget=0;points=[[0,0.5],[1,0.5]];portConstraint=eastwest;top=0;left=0;right=0;bottom=0;" vertex="1" parent="156">
                    <mxGeometry y="89" width="295" height="26" as="geometry"/>
                </mxCell>
                <mxCell id="209" style="shape=partialRectangle;connectable=0;fillColor=none;top=0;left=0;bottom=0;right=0;editable=1;overflow=hidden;" vertex="1" parent="208">
                    <mxGeometry width="77.29166666666669" height="26" as="geometry">
                        <mxRectangle width="77.29166666666669" height="26" as="alternateBounds"/>
                    </mxGeometry>
                </mxCell>
                <mxCell id="210" value="content" style="shape=partialRectangle;connectable=0;fillColor=none;top=0;left=0;bottom=0;right=0;align=left;spacingLeft=6;overflow=hidden;" vertex="1" parent="208">
                    <mxGeometry x="77.29166666666669" width="115.60488505747094" height="26" as="geometry">
                        <mxRectangle width="115.60488505747094" height="26" as="alternateBounds"/>
                    </mxGeometry>
                </mxCell>
                <mxCell id="211" value="text" style="shape=partialRectangle;connectable=0;fillColor=none;top=0;left=0;bottom=0;right=0;align=left;spacingLeft=6;overflow=hidden;" vertex="1" parent="208">
                    <mxGeometry x="192.89655172413762" width="82.10344827586238" height="26" as="geometry">
                        <mxRectangle width="82.10344827586238" height="26" as="alternateBounds"/>
                    </mxGeometry>
                </mxCell>
                <mxCell id="212" style="shape=partialRectangle;connectable=0;fillColor=none;top=0;left=0;bottom=0;right=0;align=left;spacingLeft=6;overflow=hidden;" vertex="1" parent="208">
                    <mxGeometry x="275" width="20" height="26" as="geometry">
                        <mxRectangle width="20" height="26" as="alternateBounds"/>
                    </mxGeometry>
                </mxCell>
                <mxCell id="238" style="shape=tableRow;horizontal=0;startSize=0;swimlaneHead=0;swimlaneBody=0;fillColor=none;collapsible=0;dropTarget=0;points=[[0,0.5],[1,0.5]];portConstraint=eastwest;top=0;left=0;right=0;bottom=0;" vertex="1" parent="156">
                    <mxGeometry y="115" width="295" height="26" as="geometry"/>
                </mxCell>
                <mxCell id="239" style="shape=partialRectangle;connectable=0;fillColor=none;top=0;left=0;bottom=0;right=0;editable=1;overflow=hidden;" vertex="1" parent="238">
                    <mxGeometry width="77.29166666666669" height="26" as="geometry">
                        <mxRectangle width="77.29166666666669" height="26" as="alternateBounds"/>
                    </mxGeometry>
                </mxCell>
                <mxCell id="240" value="visibility" style="shape=partialRectangle;connectable=0;fillColor=none;top=0;left=0;bottom=0;right=0;align=left;spacingLeft=6;overflow=hidden;" vertex="1" parent="238">
                    <mxGeometry x="77.29166666666669" width="115.60488505747094" height="26" as="geometry">
                        <mxRectangle width="115.60488505747094" height="26" as="alternateBounds"/>
                    </mxGeometry>
                </mxCell>
                <mxCell id="241" value="VisibilityState" style="shape=partialRectangle;connectable=0;fillColor=none;top=0;left=0;bottom=0;right=0;align=left;spacingLeft=6;overflow=hidden;" vertex="1" parent="238">
                    <mxGeometry x="192.89655172413762" width="82.10344827586238" height="26" as="geometry">
                        <mxRectangle width="82.10344827586238" height="26" as="alternateBounds"/>
                    </mxGeometry>
                </mxCell>
                <mxCell id="242" style="shape=partialRectangle;connectable=0;fillColor=none;top=0;left=0;bottom=0;right=0;align=left;spacingLeft=6;overflow=hidden;" vertex="1" parent="238">
                    <mxGeometry x="275" width="20" height="26" as="geometry">
                        <mxRectangle width="20" height="26" as="alternateBounds"/>
                    </mxGeometry>
                </mxCell>
                <mxCell id="460" style="shape=tableRow;horizontal=0;startSize=0;swimlaneHead=0;swimlaneBody=0;fillColor=none;collapsible=0;dropTarget=0;points=[[0,0.5],[1,0.5]];portConstraint=eastwest;top=0;left=0;right=0;bottom=0;" vertex="1" parent="156">
                    <mxGeometry y="141" width="295" height="26" as="geometry"/>
                </mxCell>
                <mxCell id="461" style="shape=partialRectangle;connectable=0;fillColor=none;top=0;left=0;bottom=0;right=0;editable=1;overflow=hidden;" vertex="1" parent="460">
                    <mxGeometry width="77.29166666666669" height="26" as="geometry">
                        <mxRectangle width="77.29166666666669" height="26" as="alternateBounds"/>
                    </mxGeometry>
                </mxCell>
                <mxCell id="462" value="created_at" style="shape=partialRectangle;connectable=0;fillColor=none;top=0;left=0;bottom=0;right=0;align=left;spacingLeft=6;overflow=hidden;" vertex="1" parent="460">
                    <mxGeometry x="77.29166666666669" width="115.60488505747094" height="26" as="geometry">
                        <mxRectangle width="115.60488505747094" height="26" as="alternateBounds"/>
                    </mxGeometry>
                </mxCell>
                <mxCell id="463" value="DateTime" style="shape=partialRectangle;connectable=0;fillColor=none;top=0;left=0;bottom=0;right=0;align=left;spacingLeft=6;overflow=hidden;" vertex="1" parent="460">
                    <mxGeometry x="192.89655172413762" width="82.10344827586238" height="26" as="geometry">
                        <mxRectangle width="82.10344827586238" height="26" as="alternateBounds"/>
                    </mxGeometry>
                </mxCell>
                <mxCell id="464" style="shape=partialRectangle;connectable=0;fillColor=none;top=0;left=0;bottom=0;right=0;align=left;spacingLeft=6;overflow=hidden;" vertex="1" parent="460">
                    <mxGeometry x="275" width="20" height="26" as="geometry">
                        <mxRectangle width="20" height="26" as="alternateBounds"/>
                    </mxGeometry>
                </mxCell>
                <mxCell id="215" style="edgeStyle=elbowEdgeStyle;jumpStyle=arc;jumpSize=10;html=1;strokeWidth=2;startArrow=ERzeroToMany;startFill=0;endArrow=ERone;endFill=0;startSize=12;endSize=12;" edge="1" parent="1" source="177" target="156">
                    <mxGeometry relative="1" as="geometry"/>
                </mxCell>
                <mxCell id="177" value="flashcard_answer_options" style="shape=table;startSize=30;container=1;collapsible=1;childLayout=tableLayout;fixedRows=1;rowLines=0;fontStyle=1;align=center;resizeLast=1;fillColor=#1ba1e2;strokeColor=#006EAF;fontColor=#ffffff;" vertex="1" parent="1">
                    <mxGeometry x="-726" y="1055" width="495" height="151" as="geometry"/>
                </mxCell>
                <mxCell id="178" style="shape=tableRow;horizontal=0;startSize=0;swimlaneHead=0;swimlaneBody=0;fillColor=none;collapsible=0;dropTarget=0;points=[[0,0.5],[1,0.5]];portConstraint=eastwest;top=0;left=0;right=0;bottom=1;" vertex="1" parent="177">
                    <mxGeometry y="30" width="495" height="30" as="geometry"/>
                </mxCell>
                <mxCell id="179" value="PK" style="shape=partialRectangle;connectable=0;fillColor=none;top=0;left=0;bottom=0;right=0;fontStyle=1;overflow=hidden;" vertex="1" parent="178">
                    <mxGeometry width="77.29166666666669" height="30" as="geometry">
                        <mxRectangle width="77.29166666666669" height="30" as="alternateBounds"/>
                    </mxGeometry>
                </mxCell>
                <mxCell id="180" value="id" style="shape=partialRectangle;connectable=0;fillColor=none;top=0;left=0;bottom=0;right=0;align=left;spacingLeft=6;fontStyle=5;overflow=hidden;" vertex="1" parent="178">
                    <mxGeometry x="77.29166666666669" width="105.83333333333343" height="30" as="geometry">
                        <mxRectangle width="105.83333333333343" height="30" as="alternateBounds"/>
                    </mxGeometry>
                </mxCell>
                <mxCell id="181" value="uuid" style="shape=partialRectangle;connectable=0;fillColor=none;top=0;left=0;bottom=0;right=0;align=left;spacingLeft=6;fontStyle=5;overflow=hidden;" vertex="1" parent="178">
                    <mxGeometry x="183.1250000000001" width="65.50000000000011" height="30" as="geometry">
                        <mxRectangle width="65.50000000000011" height="30" as="alternateBounds"/>
                    </mxGeometry>
                </mxCell>
                <mxCell id="182" style="shape=partialRectangle;connectable=0;fillColor=none;top=0;left=0;bottom=0;right=0;align=left;spacingLeft=6;fontStyle=5;overflow=hidden;" vertex="1" parent="178">
                    <mxGeometry x="248.62500000000023" width="246.37499999999977" height="30" as="geometry">
                        <mxRectangle width="246.37499999999977" height="30" as="alternateBounds"/>
                    </mxGeometry>
                </mxCell>
                <mxCell id="188" value="" style="shape=tableRow;horizontal=0;startSize=0;swimlaneHead=0;swimlaneBody=0;fillColor=none;collapsible=0;dropTarget=0;points=[[0,0.5],[1,0.5]];portConstraint=eastwest;top=0;left=0;right=0;bottom=1;" vertex="1" parent="177">
                    <mxGeometry y="60" width="495" height="30" as="geometry"/>
                </mxCell>
                <mxCell id="189" value="FK" style="shape=partialRectangle;connectable=0;fillColor=none;top=0;left=0;bottom=0;right=0;fontStyle=1;overflow=hidden;" vertex="1" parent="188">
                    <mxGeometry width="77.29166666666669" height="30" as="geometry">
                        <mxRectangle width="77.29166666666669" height="30" as="alternateBounds"/>
                    </mxGeometry>
                </mxCell>
                <mxCell id="190" value="flashcard_id" style="shape=partialRectangle;connectable=0;fillColor=none;top=0;left=0;bottom=0;right=0;align=left;spacingLeft=6;fontStyle=5;overflow=hidden;" vertex="1" parent="188">
                    <mxGeometry x="77.29166666666669" width="105.83333333333343" height="30" as="geometry">
                        <mxRectangle width="105.83333333333343" height="30" as="alternateBounds"/>
                    </mxGeometry>
                </mxCell>
                <mxCell id="191" value="uuid" style="shape=partialRectangle;connectable=0;fillColor=none;top=0;left=0;bottom=0;right=0;align=left;spacingLeft=6;fontStyle=5;overflow=hidden;" vertex="1" parent="188">
                    <mxGeometry x="183.1250000000001" width="65.50000000000011" height="30" as="geometry">
                        <mxRectangle width="65.50000000000011" height="30" as="alternateBounds"/>
                    </mxGeometry>
                </mxCell>
                <mxCell id="192" style="shape=partialRectangle;connectable=0;fillColor=none;top=0;left=0;bottom=0;right=0;align=left;spacingLeft=6;fontStyle=5;overflow=hidden;" vertex="1" parent="188">
                    <mxGeometry x="248.62500000000023" width="246.37499999999977" height="30" as="geometry">
                        <mxRectangle width="246.37499999999977" height="30" as="alternateBounds"/>
                    </mxGeometry>
                </mxCell>
                <mxCell id="193" value="" style="shape=tableRow;horizontal=0;startSize=0;swimlaneHead=0;swimlaneBody=0;fillColor=none;collapsible=0;dropTarget=0;points=[[0,0.5],[1,0.5]];portConstraint=eastwest;top=0;left=0;right=0;bottom=0;" vertex="1" parent="177">
                    <mxGeometry y="90" width="495" height="29" as="geometry"/>
                </mxCell>
                <mxCell id="194" value="" style="shape=partialRectangle;connectable=0;fillColor=none;top=0;left=0;bottom=0;right=0;editable=1;overflow=hidden;" vertex="1" parent="193">
                    <mxGeometry width="77.29166666666669" height="29" as="geometry">
                        <mxRectangle width="77.29166666666669" height="29" as="alternateBounds"/>
                    </mxGeometry>
                </mxCell>
                <mxCell id="195" value="content" style="shape=partialRectangle;connectable=0;fillColor=none;top=0;left=0;bottom=0;right=0;align=left;spacingLeft=6;overflow=hidden;" vertex="1" parent="193">
                    <mxGeometry x="77.29166666666669" width="105.83333333333343" height="29" as="geometry">
                        <mxRectangle width="105.83333333333343" height="29" as="alternateBounds"/>
                    </mxGeometry>
                </mxCell>
                <mxCell id="196" value="text" style="shape=partialRectangle;connectable=0;fillColor=none;top=0;left=0;bottom=0;right=0;align=left;spacingLeft=6;overflow=hidden;" vertex="1" parent="193">
                    <mxGeometry x="183.1250000000001" width="65.50000000000011" height="29" as="geometry">
                        <mxRectangle width="65.50000000000011" height="29" as="alternateBounds"/>
                    </mxGeometry>
                </mxCell>
                <mxCell id="197" value="" style="shape=partialRectangle;connectable=0;fillColor=none;top=0;left=0;bottom=0;right=0;align=left;spacingLeft=6;overflow=hidden;" vertex="1" parent="193">
                    <mxGeometry x="248.62500000000023" width="246.37499999999977" height="29" as="geometry">
                        <mxRectangle width="246.37499999999977" height="29" as="alternateBounds"/>
                    </mxGeometry>
                </mxCell>
                <mxCell id="233" style="shape=tableRow;horizontal=0;startSize=0;swimlaneHead=0;swimlaneBody=0;fillColor=none;collapsible=0;dropTarget=0;points=[[0,0.5],[1,0.5]];portConstraint=eastwest;top=0;left=0;right=0;bottom=0;" vertex="1" parent="177">
                    <mxGeometry y="119" width="495" height="29" as="geometry"/>
                </mxCell>
                <mxCell id="234" style="shape=partialRectangle;connectable=0;fillColor=none;top=0;left=0;bottom=0;right=0;editable=1;overflow=hidden;" vertex="1" parent="233">
                    <mxGeometry width="77.29166666666669" height="29" as="geometry">
                        <mxRectangle width="77.29166666666669" height="29" as="alternateBounds"/>
                    </mxGeometry>
                </mxCell>
                <mxCell id="235" value="is_correct" style="shape=partialRectangle;connectable=0;fillColor=none;top=0;left=0;bottom=0;right=0;align=left;spacingLeft=6;overflow=hidden;" vertex="1" parent="233">
                    <mxGeometry x="77.29166666666669" width="105.83333333333343" height="29" as="geometry">
                        <mxRectangle width="105.83333333333343" height="29" as="alternateBounds"/>
                    </mxGeometry>
                </mxCell>
                <mxCell id="236" value="boolean" style="shape=partialRectangle;connectable=0;fillColor=none;top=0;left=0;bottom=0;right=0;align=left;spacingLeft=6;overflow=hidden;" vertex="1" parent="233">
                    <mxGeometry x="183.1250000000001" width="65.50000000000011" height="29" as="geometry">
                        <mxRectangle width="65.50000000000011" height="29" as="alternateBounds"/>
                    </mxGeometry>
                </mxCell>
                <mxCell id="237" value="If there is more than one, for a flashcard,&#10;the flashcard will be a multi-select" style="shape=partialRectangle;connectable=0;fillColor=none;top=0;left=0;bottom=0;right=0;align=left;spacingLeft=6;overflow=hidden;" vertex="1" parent="233">
                    <mxGeometry x="248.62500000000023" width="246.37499999999977" height="29" as="geometry">
                        <mxRectangle width="246.37499999999977" height="29" as="alternateBounds"/>
                    </mxGeometry>
                </mxCell>
                <mxCell id="216" value="&lt;font style=&quot;font-size: 42px;&quot;&gt;Unless specified, assume all Foreign Keys are under Cascade Delete.&lt;br style=&quot;font-size: 42px;&quot;&gt;&lt;/font&gt;" style="shape=note;strokeWidth=2;fontSize=42;size=20;whiteSpace=wrap;html=1;fillColor=#fff2cc;strokeColor=#d6b656;fontColor=#666600;spacingLeft=4;spacingRight=4;fontStyle=1" vertex="1" parent="1">
                    <mxGeometry x="-684" y="-4" width="875" height="123" as="geometry"/>
                </mxCell>
                <mxCell id="335" style="edgeStyle=elbowEdgeStyle;jumpStyle=arc;jumpSize=10;html=1;strokeWidth=2;fontSize=42;startArrow=ERzeroToMany;startFill=0;endArrow=ERone;endFill=0;startSize=12;endSize=12;" edge="1" parent="1" source="249" target="270">
                    <mxGeometry relative="1" as="geometry"/>
                </mxCell>
                <mxCell id="338" style="edgeStyle=elbowEdgeStyle;jumpStyle=arc;jumpSize=10;html=1;strokeWidth=2;fontSize=42;startArrow=ERone;startFill=0;endArrow=ERzeroToMany;endFill=0;startSize=12;endSize=12;" edge="1" parent="1" source="249" target="156">
                    <mxGeometry relative="1" as="geometry"/>
                </mxCell>
                <mxCell id="249" value="quiz_flashcards" style="shape=table;startSize=30;container=1;collapsible=1;childLayout=tableLayout;fixedRows=1;rowLines=0;fontStyle=1;align=center;resizeLast=1;fillColor=#1ba1e2;strokeColor=#006EAF;fontColor=#ffffff;" vertex="1" parent="1">
                    <mxGeometry x="-1165" y="1256" width="268.6250000000002" height="93" as="geometry"/>
                </mxCell>
                <mxCell id="250" style="shape=tableRow;horizontal=0;startSize=0;swimlaneHead=0;swimlaneBody=0;fillColor=none;collapsible=0;dropTarget=0;points=[[0,0.5],[1,0.5]];portConstraint=eastwest;top=0;left=0;right=0;bottom=1;" vertex="1" parent="249">
                    <mxGeometry y="30" width="268.6250000000002" height="30" as="geometry"/>
                </mxCell>
                <mxCell id="251" value="PK FK" style="shape=partialRectangle;connectable=0;fillColor=none;top=0;left=0;bottom=0;right=0;fontStyle=1;overflow=hidden;" vertex="1" parent="250">
                    <mxGeometry width="77.29166666666669" height="30" as="geometry">
                        <mxRectangle width="77.29166666666669" height="30" as="alternateBounds"/>
                    </mxGeometry>
                </mxCell>
                <mxCell id="252" value="quiz_id" style="shape=partialRectangle;connectable=0;fillColor=none;top=0;left=0;bottom=0;right=0;align=left;spacingLeft=6;fontStyle=5;overflow=hidden;" vertex="1" parent="250">
                    <mxGeometry x="77.29166666666669" width="105.83333333333343" height="30" as="geometry">
                        <mxRectangle width="105.83333333333343" height="30" as="alternateBounds"/>
                    </mxGeometry>
                </mxCell>
                <mxCell id="253" value="uuid" style="shape=partialRectangle;connectable=0;fillColor=none;top=0;left=0;bottom=0;right=0;align=left;spacingLeft=6;fontStyle=5;overflow=hidden;" vertex="1" parent="250">
                    <mxGeometry x="183.1250000000001" width="65.50000000000011" height="30" as="geometry">
                        <mxRectangle width="65.50000000000011" height="30" as="alternateBounds"/>
                    </mxGeometry>
                </mxCell>
                <mxCell id="254" style="shape=partialRectangle;connectable=0;fillColor=none;top=0;left=0;bottom=0;right=0;align=left;spacingLeft=6;fontStyle=5;overflow=hidden;" vertex="1" parent="250">
                    <mxGeometry x="248.62500000000023" width="20" height="30" as="geometry">
                        <mxRectangle width="20" height="30" as="alternateBounds"/>
                    </mxGeometry>
                </mxCell>
                <mxCell id="255" value="" style="shape=tableRow;horizontal=0;startSize=0;swimlaneHead=0;swimlaneBody=0;fillColor=none;collapsible=0;dropTarget=0;points=[[0,0.5],[1,0.5]];portConstraint=eastwest;top=0;left=0;right=0;bottom=1;" vertex="1" parent="249">
                    <mxGeometry y="60" width="268.6250000000002" height="30" as="geometry"/>
                </mxCell>
                <mxCell id="256" value="PK FK" style="shape=partialRectangle;connectable=0;fillColor=none;top=0;left=0;bottom=0;right=0;fontStyle=1;overflow=hidden;" vertex="1" parent="255">
                    <mxGeometry width="77.29166666666669" height="30" as="geometry">
                        <mxRectangle width="77.29166666666669" height="30" as="alternateBounds"/>
                    </mxGeometry>
                </mxCell>
                <mxCell id="257" value="flashcard_id" style="shape=partialRectangle;connectable=0;fillColor=none;top=0;left=0;bottom=0;right=0;align=left;spacingLeft=6;fontStyle=5;overflow=hidden;" vertex="1" parent="255">
                    <mxGeometry x="77.29166666666669" width="105.83333333333343" height="30" as="geometry">
                        <mxRectangle width="105.83333333333343" height="30" as="alternateBounds"/>
                    </mxGeometry>
                </mxCell>
                <mxCell id="258" value="uuid" style="shape=partialRectangle;connectable=0;fillColor=none;top=0;left=0;bottom=0;right=0;align=left;spacingLeft=6;fontStyle=5;overflow=hidden;" vertex="1" parent="255">
                    <mxGeometry x="183.1250000000001" width="65.50000000000011" height="30" as="geometry">
                        <mxRectangle width="65.50000000000011" height="30" as="alternateBounds"/>
                    </mxGeometry>
                </mxCell>
                <mxCell id="259" style="shape=partialRectangle;connectable=0;fillColor=none;top=0;left=0;bottom=0;right=0;align=left;spacingLeft=6;fontStyle=5;overflow=hidden;" vertex="1" parent="255">
                    <mxGeometry x="248.62500000000023" width="20" height="30" as="geometry">
                        <mxRectangle width="20" height="30" as="alternateBounds"/>
                    </mxGeometry>
                </mxCell>
                <mxCell id="336" style="edgeStyle=elbowEdgeStyle;jumpStyle=arc;jumpSize=10;html=1;strokeWidth=2;fontSize=42;startArrow=ERone;startFill=0;endArrow=ERoneToMany;endFill=0;startSize=12;endSize=12;" edge="1" parent="1" source="270" target="312">
                    <mxGeometry relative="1" as="geometry"/>
                </mxCell>
                <mxCell id="270" value="quiz" style="shape=table;startSize=30;container=1;collapsible=1;childLayout=tableLayout;fixedRows=1;rowLines=0;fontStyle=1;align=center;resizeLast=1;fillColor=#1ba1e2;strokeColor=#006EAF;fontColor=#ffffff;fontSize=16;" vertex="1" parent="1">
                    <mxGeometry x="-1119" y="795" width="330" height="167" as="geometry"/>
                </mxCell>
                <mxCell id="271" style="shape=tableRow;horizontal=0;startSize=0;swimlaneHead=0;swimlaneBody=0;fillColor=none;collapsible=0;dropTarget=0;points=[[0,0.5],[1,0.5]];portConstraint=eastwest;top=0;left=0;right=0;bottom=1;" vertex="1" parent="270">
                    <mxGeometry y="30" width="330" height="30" as="geometry"/>
                </mxCell>
                <mxCell id="272" value="PK" style="shape=partialRectangle;connectable=0;fillColor=none;top=0;left=0;bottom=0;right=0;fontStyle=1;overflow=hidden;" vertex="1" parent="271">
                    <mxGeometry width="77.29166666666669" height="30" as="geometry">
                        <mxRectangle width="77.29166666666669" height="30" as="alternateBounds"/>
                    </mxGeometry>
                </mxCell>
                <mxCell id="273" value="id" style="shape=partialRectangle;connectable=0;fillColor=none;top=0;left=0;bottom=0;right=0;align=left;spacingLeft=6;fontStyle=5;overflow=hidden;" vertex="1" parent="271">
                    <mxGeometry x="77.29166666666669" width="115.36350574712628" height="30" as="geometry">
                        <mxRectangle width="115.36350574712628" height="30" as="alternateBounds"/>
                    </mxGeometry>
                </mxCell>
                <mxCell id="274" value="uuid" style="shape=partialRectangle;connectable=0;fillColor=none;top=0;left=0;bottom=0;right=0;align=left;spacingLeft=6;fontStyle=5;overflow=hidden;" vertex="1" parent="271">
                    <mxGeometry x="192.65517241379297" width="97.24137931034466" height="30" as="geometry">
                        <mxRectangle width="97.24137931034466" height="30" as="alternateBounds"/>
                    </mxGeometry>
                </mxCell>
                <mxCell id="275" style="shape=partialRectangle;connectable=0;fillColor=none;top=0;left=0;bottom=0;right=0;align=left;spacingLeft=6;fontStyle=5;overflow=hidden;" vertex="1" parent="271">
                    <mxGeometry x="289.8965517241376" width="40.10344827586238" height="30" as="geometry">
                        <mxRectangle width="40.10344827586238" height="30" as="alternateBounds"/>
                    </mxGeometry>
                </mxCell>
                <mxCell id="276" value="" style="shape=tableRow;horizontal=0;startSize=0;swimlaneHead=0;swimlaneBody=0;fillColor=none;collapsible=0;dropTarget=0;points=[[0,0.5],[1,0.5]];portConstraint=eastwest;top=0;left=0;right=0;bottom=0;" vertex="1" parent="270">
                    <mxGeometry y="60" width="330" height="29" as="geometry"/>
                </mxCell>
                <mxCell id="277" value="" style="shape=partialRectangle;connectable=0;fillColor=none;top=0;left=0;bottom=0;right=0;editable=1;overflow=hidden;" vertex="1" parent="276">
                    <mxGeometry width="77.29166666666669" height="29" as="geometry">
                        <mxRectangle width="77.29166666666669" height="29" as="alternateBounds"/>
                    </mxGeometry>
                </mxCell>
                <mxCell id="278" value="title" style="shape=partialRectangle;connectable=0;fillColor=none;top=0;left=0;bottom=0;right=0;align=left;spacingLeft=6;overflow=hidden;" vertex="1" parent="276">
                    <mxGeometry x="77.29166666666669" width="115.36350574712628" height="29" as="geometry">
                        <mxRectangle width="115.36350574712628" height="29" as="alternateBounds"/>
                    </mxGeometry>
                </mxCell>
                <mxCell id="279" value="varchar" style="shape=partialRectangle;connectable=0;fillColor=none;top=0;left=0;bottom=0;right=0;align=left;spacingLeft=6;overflow=hidden;" vertex="1" parent="276">
                    <mxGeometry x="192.65517241379297" width="97.24137931034466" height="29" as="geometry">
                        <mxRectangle width="97.24137931034466" height="29" as="alternateBounds"/>
                    </mxGeometry>
                </mxCell>
                <mxCell id="280" value="" style="shape=partialRectangle;connectable=0;fillColor=none;top=0;left=0;bottom=0;right=0;align=left;spacingLeft=6;overflow=hidden;" vertex="1" parent="276">
                    <mxGeometry x="289.8965517241376" width="40.10344827586238" height="29" as="geometry">
                        <mxRectangle width="40.10344827586238" height="29" as="alternateBounds"/>
                    </mxGeometry>
                </mxCell>
                <mxCell id="281" style="shape=tableRow;horizontal=0;startSize=0;swimlaneHead=0;swimlaneBody=0;fillColor=none;collapsible=0;dropTarget=0;points=[[0,0.5],[1,0.5]];portConstraint=eastwest;top=0;left=0;right=0;bottom=0;" vertex="1" parent="270">
                    <mxGeometry y="89" width="330" height="26" as="geometry"/>
                </mxCell>
                <mxCell id="282" style="shape=partialRectangle;connectable=0;fillColor=none;top=0;left=0;bottom=0;right=0;editable=1;overflow=hidden;" vertex="1" parent="281">
                    <mxGeometry width="77.29166666666669" height="26" as="geometry">
                        <mxRectangle width="77.29166666666669" height="26" as="alternateBounds"/>
                    </mxGeometry>
                </mxCell>
                <mxCell id="283" value="description" style="shape=partialRectangle;connectable=0;fillColor=none;top=0;left=0;bottom=0;right=0;align=left;spacingLeft=6;overflow=hidden;" vertex="1" parent="281">
                    <mxGeometry x="77.29166666666669" width="115.36350574712628" height="26" as="geometry">
                        <mxRectangle width="115.36350574712628" height="26" as="alternateBounds"/>
                    </mxGeometry>
                </mxCell>
                <mxCell id="284" value="text" style="shape=partialRectangle;connectable=0;fillColor=none;top=0;left=0;bottom=0;right=0;align=left;spacingLeft=6;overflow=hidden;" vertex="1" parent="281">
                    <mxGeometry x="192.65517241379297" width="97.24137931034466" height="26" as="geometry">
                        <mxRectangle width="97.24137931034466" height="26" as="alternateBounds"/>
                    </mxGeometry>
                </mxCell>
                <mxCell id="285" style="shape=partialRectangle;connectable=0;fillColor=none;top=0;left=0;bottom=0;right=0;align=left;spacingLeft=6;overflow=hidden;" vertex="1" parent="281">
                    <mxGeometry x="289.8965517241376" width="40.10344827586238" height="26" as="geometry">
                        <mxRectangle width="40.10344827586238" height="26" as="alternateBounds"/>
                    </mxGeometry>
                </mxCell>
                <mxCell id="286" style="shape=tableRow;horizontal=0;startSize=0;swimlaneHead=0;swimlaneBody=0;fillColor=none;collapsible=0;dropTarget=0;points=[[0,0.5],[1,0.5]];portConstraint=eastwest;top=0;left=0;right=0;bottom=0;" vertex="1" parent="270">
                    <mxGeometry y="115" width="330" height="26" as="geometry"/>
                </mxCell>
                <mxCell id="287" style="shape=partialRectangle;connectable=0;fillColor=none;top=0;left=0;bottom=0;right=0;editable=1;overflow=hidden;" vertex="1" parent="286">
                    <mxGeometry width="77.29166666666669" height="26" as="geometry">
                        <mxRectangle width="77.29166666666669" height="26" as="alternateBounds"/>
                    </mxGeometry>
                </mxCell>
                <mxCell id="288" value="visibility" style="shape=partialRectangle;connectable=0;fillColor=none;top=0;left=0;bottom=0;right=0;align=left;spacingLeft=6;overflow=hidden;" vertex="1" parent="286">
                    <mxGeometry x="77.29166666666669" width="115.36350574712628" height="26" as="geometry">
                        <mxRectangle width="115.36350574712628" height="26" as="alternateBounds"/>
                    </mxGeometry>
                </mxCell>
                <mxCell id="289" value="VisibilityState" style="shape=partialRectangle;connectable=0;fillColor=none;top=0;left=0;bottom=0;right=0;align=left;spacingLeft=6;overflow=hidden;" vertex="1" parent="286">
                    <mxGeometry x="192.65517241379297" width="97.24137931034466" height="26" as="geometry">
                        <mxRectangle width="97.24137931034466" height="26" as="alternateBounds"/>
                    </mxGeometry>
                </mxCell>
                <mxCell id="290" style="shape=partialRectangle;connectable=0;fillColor=none;top=0;left=0;bottom=0;right=0;align=left;spacingLeft=6;overflow=hidden;" vertex="1" parent="286">
                    <mxGeometry x="289.8965517241376" width="40.10344827586238" height="26" as="geometry">
                        <mxRectangle width="40.10344827586238" height="26" as="alternateBounds"/>
                    </mxGeometry>
                </mxCell>
                <mxCell id="465" style="shape=tableRow;horizontal=0;startSize=0;swimlaneHead=0;swimlaneBody=0;fillColor=none;collapsible=0;dropTarget=0;points=[[0,0.5],[1,0.5]];portConstraint=eastwest;top=0;left=0;right=0;bottom=0;" vertex="1" parent="270">
                    <mxGeometry y="141" width="330" height="26" as="geometry"/>
                </mxCell>
                <mxCell id="466" style="shape=partialRectangle;connectable=0;fillColor=none;top=0;left=0;bottom=0;right=0;editable=1;overflow=hidden;" vertex="1" parent="465">
                    <mxGeometry width="77.29166666666669" height="26" as="geometry">
                        <mxRectangle width="77.29166666666669" height="26" as="alternateBounds"/>
                    </mxGeometry>
                </mxCell>
                <mxCell id="467" value="created_at" style="shape=partialRectangle;connectable=0;fillColor=none;top=0;left=0;bottom=0;right=0;align=left;spacingLeft=6;overflow=hidden;" vertex="1" parent="465">
                    <mxGeometry x="77.29166666666669" width="115.36350574712628" height="26" as="geometry">
                        <mxRectangle width="115.36350574712628" height="26" as="alternateBounds"/>
                    </mxGeometry>
                </mxCell>
                <mxCell id="468" value="DateTime" style="shape=partialRectangle;connectable=0;fillColor=none;top=0;left=0;bottom=0;right=0;align=left;spacingLeft=6;overflow=hidden;" vertex="1" parent="465">
                    <mxGeometry x="192.65517241379297" width="97.24137931034466" height="26" as="geometry">
                        <mxRectangle width="97.24137931034466" height="26" as="alternateBounds"/>
                    </mxGeometry>
                </mxCell>
                <mxCell id="469" style="shape=partialRectangle;connectable=0;fillColor=none;top=0;left=0;bottom=0;right=0;align=left;spacingLeft=6;overflow=hidden;" vertex="1" parent="465">
                    <mxGeometry x="289.8965517241376" width="40.10344827586238" height="26" as="geometry">
                        <mxRectangle width="40.10344827586238" height="26" as="alternateBounds"/>
                    </mxGeometry>
                </mxCell>
                <mxCell id="312" value="quiz_contributors" style="shape=table;startSize=30;container=1;collapsible=1;childLayout=tableLayout;fixedRows=1;rowLines=0;fontStyle=1;align=center;resizeLast=1;fillColor=#1ba1e2;strokeColor=#006EAF;fontColor=#ffffff;" vertex="1" parent="1">
                    <mxGeometry x="-545" y="784" width="402.79310344827593" height="149" as="geometry"/>
                </mxCell>
                <mxCell id="313" style="shape=tableRow;horizontal=0;startSize=0;swimlaneHead=0;swimlaneBody=0;fillColor=none;collapsible=0;dropTarget=0;points=[[0,0.5],[1,0.5]];portConstraint=eastwest;top=0;left=0;right=0;bottom=1;" vertex="1" parent="312">
                    <mxGeometry y="30" width="402.79310344827593" height="30" as="geometry"/>
                </mxCell>
                <mxCell id="314" value="PK" style="shape=partialRectangle;connectable=0;fillColor=none;top=0;left=0;bottom=0;right=0;fontStyle=1;overflow=hidden;" vertex="1" parent="313">
                    <mxGeometry width="77.29166666666669" height="30" as="geometry">
                        <mxRectangle width="77.29166666666669" height="30" as="alternateBounds"/>
                    </mxGeometry>
                </mxCell>
                <mxCell id="315" value="id" style="shape=partialRectangle;connectable=0;fillColor=none;top=0;left=0;bottom=0;right=0;align=left;spacingLeft=6;fontStyle=5;overflow=hidden;" vertex="1" parent="313">
                    <mxGeometry x="77.29166666666669" width="105.83333333333343" height="30" as="geometry">
                        <mxRectangle width="105.83333333333343" height="30" as="alternateBounds"/>
                    </mxGeometry>
                </mxCell>
                <mxCell id="316" value="uuid" style="shape=partialRectangle;connectable=0;fillColor=none;top=0;left=0;bottom=0;right=0;align=left;spacingLeft=6;fontStyle=5;overflow=hidden;" vertex="1" parent="313">
                    <mxGeometry x="183.1250000000001" width="121.04741379310352" height="30" as="geometry">
                        <mxRectangle width="121.04741379310352" height="30" as="alternateBounds"/>
                    </mxGeometry>
                </mxCell>
                <mxCell id="317" style="shape=partialRectangle;connectable=0;fillColor=none;top=0;left=0;bottom=0;right=0;align=left;spacingLeft=6;fontStyle=5;overflow=hidden;" vertex="1" parent="313">
                    <mxGeometry x="304.1724137931036" width="98.62068965517233" height="30" as="geometry">
                        <mxRectangle width="98.62068965517233" height="30" as="alternateBounds"/>
                    </mxGeometry>
                </mxCell>
                <mxCell id="318" style="shape=tableRow;horizontal=0;startSize=0;swimlaneHead=0;swimlaneBody=0;fillColor=none;collapsible=0;dropTarget=0;points=[[0,0.5],[1,0.5]];portConstraint=eastwest;top=0;left=0;right=0;bottom=1;" vertex="1" parent="312">
                    <mxGeometry y="60" width="402.79310344827593" height="30" as="geometry"/>
                </mxCell>
                <mxCell id="319" value="FK" style="shape=partialRectangle;connectable=0;fillColor=none;top=0;left=0;bottom=0;right=0;fontStyle=1;overflow=hidden;" vertex="1" parent="318">
                    <mxGeometry width="77.29166666666669" height="30" as="geometry">
                        <mxRectangle width="77.29166666666669" height="30" as="alternateBounds"/>
                    </mxGeometry>
                </mxCell>
                <mxCell id="320" value="account_id" style="shape=partialRectangle;connectable=0;fillColor=none;top=0;left=0;bottom=0;right=0;align=left;spacingLeft=6;fontStyle=5;overflow=hidden;" vertex="1" parent="318">
                    <mxGeometry x="77.29166666666669" width="105.83333333333343" height="30" as="geometry">
                        <mxRectangle width="105.83333333333343" height="30" as="alternateBounds"/>
                    </mxGeometry>
                </mxCell>
                <mxCell id="321" value="uuid?" style="shape=partialRectangle;connectable=0;fillColor=none;top=0;left=0;bottom=0;right=0;align=left;spacingLeft=6;fontStyle=5;overflow=hidden;" vertex="1" parent="318">
                    <mxGeometry x="183.1250000000001" width="121.04741379310352" height="30" as="geometry">
                        <mxRectangle width="121.04741379310352" height="30" as="alternateBounds"/>
                    </mxGeometry>
                </mxCell>
                <mxCell id="322" value="Cascade Null" style="shape=partialRectangle;connectable=0;fillColor=none;top=0;left=0;bottom=0;right=0;align=left;spacingLeft=6;fontStyle=5;overflow=hidden;" vertex="1" parent="318">
                    <mxGeometry x="304.1724137931036" width="98.62068965517233" height="30" as="geometry">
                        <mxRectangle width="98.62068965517233" height="30" as="alternateBounds"/>
                    </mxGeometry>
                </mxCell>
                <mxCell id="323" value="" style="shape=tableRow;horizontal=0;startSize=0;swimlaneHead=0;swimlaneBody=0;fillColor=none;collapsible=0;dropTarget=0;points=[[0,0.5],[1,0.5]];portConstraint=eastwest;top=0;left=0;right=0;bottom=1;" vertex="1" parent="312">
                    <mxGeometry y="90" width="402.79310344827593" height="30" as="geometry"/>
                </mxCell>
                <mxCell id="324" value="FK" style="shape=partialRectangle;connectable=0;fillColor=none;top=0;left=0;bottom=0;right=0;fontStyle=1;overflow=hidden;" vertex="1" parent="323">
                    <mxGeometry width="77.29166666666669" height="30" as="geometry">
                        <mxRectangle width="77.29166666666669" height="30" as="alternateBounds"/>
                    </mxGeometry>
                </mxCell>
                <mxCell id="325" value="quiz_id" style="shape=partialRectangle;connectable=0;fillColor=none;top=0;left=0;bottom=0;right=0;align=left;spacingLeft=6;fontStyle=5;overflow=hidden;" vertex="1" parent="323">
                    <mxGeometry x="77.29166666666669" width="105.83333333333343" height="30" as="geometry">
                        <mxRectangle width="105.83333333333343" height="30" as="alternateBounds"/>
                    </mxGeometry>
                </mxCell>
                <mxCell id="326" value="uuid" style="shape=partialRectangle;connectable=0;fillColor=none;top=0;left=0;bottom=0;right=0;align=left;spacingLeft=6;fontStyle=5;overflow=hidden;" vertex="1" parent="323">
                    <mxGeometry x="183.1250000000001" width="121.04741379310352" height="30" as="geometry">
                        <mxRectangle width="121.04741379310352" height="30" as="alternateBounds"/>
                    </mxGeometry>
                </mxCell>
                <mxCell id="327" value="" style="shape=partialRectangle;connectable=0;fillColor=none;top=0;left=0;bottom=0;right=0;align=left;spacingLeft=6;fontStyle=5;overflow=hidden;" vertex="1" parent="323">
                    <mxGeometry x="304.1724137931036" width="98.62068965517233" height="30" as="geometry">
                        <mxRectangle width="98.62068965517233" height="30" as="alternateBounds"/>
                    </mxGeometry>
                </mxCell>
                <mxCell id="328" value="" style="shape=tableRow;horizontal=0;startSize=0;swimlaneHead=0;swimlaneBody=0;fillColor=none;collapsible=0;dropTarget=0;points=[[0,0.5],[1,0.5]];portConstraint=eastwest;top=0;left=0;right=0;bottom=0;" vertex="1" parent="312">
                    <mxGeometry y="120" width="402.79310344827593" height="29" as="geometry"/>
                </mxCell>
                <mxCell id="329" value="" style="shape=partialRectangle;connectable=0;fillColor=none;top=0;left=0;bottom=0;right=0;editable=1;overflow=hidden;" vertex="1" parent="328">
                    <mxGeometry width="77.29166666666669" height="29" as="geometry">
                        <mxRectangle width="77.29166666666669" height="29" as="alternateBounds"/>
                    </mxGeometry>
                </mxCell>
                <mxCell id="330" value="role" style="shape=partialRectangle;connectable=0;fillColor=none;top=0;left=0;bottom=0;right=0;align=left;spacingLeft=6;overflow=hidden;" vertex="1" parent="328">
                    <mxGeometry x="77.29166666666669" width="105.83333333333343" height="29" as="geometry">
                        <mxRectangle width="105.83333333333343" height="29" as="alternateBounds"/>
                    </mxGeometry>
                </mxCell>
                <mxCell id="331" value="ContributorRole" style="shape=partialRectangle;connectable=0;fillColor=none;top=0;left=0;bottom=0;right=0;align=left;spacingLeft=6;overflow=hidden;" vertex="1" parent="328">
                    <mxGeometry x="183.1250000000001" width="121.04741379310352" height="29" as="geometry">
                        <mxRectangle width="121.04741379310352" height="29" as="alternateBounds"/>
                    </mxGeometry>
                </mxCell>
                <mxCell id="332" value="" style="shape=partialRectangle;connectable=0;fillColor=none;top=0;left=0;bottom=0;right=0;align=left;spacingLeft=6;overflow=hidden;" vertex="1" parent="328">
                    <mxGeometry x="304.1724137931036" width="98.62068965517233" height="29" as="geometry">
                        <mxRectangle width="98.62068965517233" height="29" as="alternateBounds"/>
                    </mxGeometry>
                </mxCell>
                <mxCell id="411" style="edgeStyle=elbowEdgeStyle;jumpStyle=arc;jumpSize=10;html=1;strokeWidth=2;fontSize=17;startArrow=ERone;startFill=0;endArrow=ERzeroToMany;endFill=0;startSize=12;endSize=12;" edge="1" parent="1" source="349" target="399">
                    <mxGeometry relative="1" as="geometry">
                        <Array as="points">
                            <mxPoint x="-1440" y="1604"/>
                        </Array>
                    </mxGeometry>
                </mxCell>
                <mxCell id="412" style="edgeStyle=elbowEdgeStyle;jumpStyle=arc;jumpSize=10;html=1;strokeWidth=2;fontSize=17;startArrow=ERone;startFill=0;endArrow=ERzeroToMany;endFill=0;startSize=12;endSize=12;" edge="1" parent="1" source="349" target="388">
                    <mxGeometry relative="1" as="geometry"/>
                </mxCell>
                <mxCell id="458" style="edgeStyle=elbowEdgeStyle;jumpStyle=arc;jumpSize=10;html=1;strokeWidth=2;fontSize=17;startArrow=ERone;startFill=0;endArrow=ERzeroToMany;endFill=0;startSize=12;endSize=12;elbow=vertical;" edge="1" parent="1" source="349" target="582">
                    <mxGeometry relative="1" as="geometry">
                        <mxPoint x="-1204" y="1902.9999999999995" as="targetPoint"/>
                        <Array as="points">
                            <mxPoint x="-1582" y="1903"/>
                            <mxPoint x="-1369" y="1830"/>
                        </Array>
                    </mxGeometry>
                </mxCell>
                <mxCell id="349" value="tags" style="shape=table;startSize=30;container=1;collapsible=1;childLayout=tableLayout;fixedRows=1;rowLines=0;fontStyle=1;align=center;resizeLast=1;fillColor=#1ba1e2;strokeColor=#006EAF;fontColor=#ffffff;fontSize=16;" vertex="1" parent="1">
                    <mxGeometry x="-1821" y="1497" width="288.6666666666667" height="115" as="geometry"/>
                </mxCell>
                <mxCell id="350" style="shape=tableRow;horizontal=0;startSize=0;swimlaneHead=0;swimlaneBody=0;fillColor=none;collapsible=0;dropTarget=0;points=[[0,0.5],[1,0.5]];portConstraint=eastwest;top=0;left=0;right=0;bottom=1;" vertex="1" parent="349">
                    <mxGeometry y="30" width="288.6666666666667" height="30" as="geometry"/>
                </mxCell>
                <mxCell id="351" value="PK" style="shape=partialRectangle;connectable=0;fillColor=none;top=0;left=0;bottom=0;right=0;fontStyle=1;overflow=hidden;" vertex="1" parent="350">
                    <mxGeometry width="77.29166666666669" height="30" as="geometry">
                        <mxRectangle width="77.29166666666669" height="30" as="alternateBounds"/>
                    </mxGeometry>
                </mxCell>
                <mxCell id="352" value="id" style="shape=partialRectangle;connectable=0;fillColor=none;top=0;left=0;bottom=0;right=0;align=left;spacingLeft=6;fontStyle=5;overflow=hidden;" vertex="1" parent="350">
                    <mxGeometry x="77.29166666666669" width="105.83333333333343" height="30" as="geometry">
                        <mxRectangle width="105.83333333333343" height="30" as="alternateBounds"/>
                    </mxGeometry>
                </mxCell>
                <mxCell id="353" value="uuid" style="shape=partialRectangle;connectable=0;fillColor=none;top=0;left=0;bottom=0;right=0;align=left;spacingLeft=6;fontStyle=5;overflow=hidden;" vertex="1" parent="350">
                    <mxGeometry x="183.1250000000001" width="85.54166666666657" height="30" as="geometry">
                        <mxRectangle width="85.54166666666657" height="30" as="alternateBounds"/>
                    </mxGeometry>
                </mxCell>
                <mxCell id="354" style="shape=partialRectangle;connectable=0;fillColor=none;top=0;left=0;bottom=0;right=0;align=left;spacingLeft=6;fontStyle=5;overflow=hidden;" vertex="1" parent="350">
                    <mxGeometry x="268.6666666666667" width="20" height="30" as="geometry">
                        <mxRectangle width="20" height="30" as="alternateBounds"/>
                    </mxGeometry>
                </mxCell>
                <mxCell id="355" value="" style="shape=tableRow;horizontal=0;startSize=0;swimlaneHead=0;swimlaneBody=0;fillColor=none;collapsible=0;dropTarget=0;points=[[0,0.5],[1,0.5]];portConstraint=eastwest;top=0;left=0;right=0;bottom=0;" vertex="1" parent="349">
                    <mxGeometry y="60" width="288.6666666666667" height="29" as="geometry"/>
                </mxCell>
                <mxCell id="356" value="UQ" style="shape=partialRectangle;connectable=0;fillColor=none;top=0;left=0;bottom=0;right=0;editable=1;overflow=hidden;" vertex="1" parent="355">
                    <mxGeometry width="77.29166666666669" height="29" as="geometry">
                        <mxRectangle width="77.29166666666669" height="29" as="alternateBounds"/>
                    </mxGeometry>
                </mxCell>
                <mxCell id="357" value="name" style="shape=partialRectangle;connectable=0;fillColor=none;top=0;left=0;bottom=0;right=0;align=left;spacingLeft=6;overflow=hidden;" vertex="1" parent="355">
                    <mxGeometry x="77.29166666666669" width="105.83333333333343" height="29" as="geometry">
                        <mxRectangle width="105.83333333333343" height="29" as="alternateBounds"/>
                    </mxGeometry>
                </mxCell>
                <mxCell id="358" value="varchar" style="shape=partialRectangle;connectable=0;fillColor=none;top=0;left=0;bottom=0;right=0;align=left;spacingLeft=6;overflow=hidden;" vertex="1" parent="355">
                    <mxGeometry x="183.1250000000001" width="85.54166666666657" height="29" as="geometry">
                        <mxRectangle width="85.54166666666657" height="29" as="alternateBounds"/>
                    </mxGeometry>
                </mxCell>
                <mxCell id="359" value="" style="shape=partialRectangle;connectable=0;fillColor=none;top=0;left=0;bottom=0;right=0;align=left;spacingLeft=6;overflow=hidden;" vertex="1" parent="355">
                    <mxGeometry x="268.6666666666667" width="20" height="29" as="geometry">
                        <mxRectangle width="20" height="29" as="alternateBounds"/>
                    </mxGeometry>
                </mxCell>
                <mxCell id="360" style="shape=tableRow;horizontal=0;startSize=0;swimlaneHead=0;swimlaneBody=0;fillColor=none;collapsible=0;dropTarget=0;points=[[0,0.5],[1,0.5]];portConstraint=eastwest;top=0;left=0;right=0;bottom=0;" vertex="1" parent="349">
                    <mxGeometry y="89" width="288.6666666666667" height="26" as="geometry"/>
                </mxCell>
                <mxCell id="361" style="shape=partialRectangle;connectable=0;fillColor=none;top=0;left=0;bottom=0;right=0;editable=1;overflow=hidden;" vertex="1" parent="360">
                    <mxGeometry width="77.29166666666669" height="26" as="geometry">
                        <mxRectangle width="77.29166666666669" height="26" as="alternateBounds"/>
                    </mxGeometry>
                </mxCell>
                <mxCell id="362" value="description" style="shape=partialRectangle;connectable=0;fillColor=none;top=0;left=0;bottom=0;right=0;align=left;spacingLeft=6;overflow=hidden;" vertex="1" parent="360">
                    <mxGeometry x="77.29166666666669" width="105.83333333333343" height="26" as="geometry">
                        <mxRectangle width="105.83333333333343" height="26" as="alternateBounds"/>
                    </mxGeometry>
                </mxCell>
                <mxCell id="363" value="text" style="shape=partialRectangle;connectable=0;fillColor=none;top=0;left=0;bottom=0;right=0;align=left;spacingLeft=6;overflow=hidden;" vertex="1" parent="360">
                    <mxGeometry x="183.1250000000001" width="85.54166666666657" height="26" as="geometry">
                        <mxRectangle width="85.54166666666657" height="26" as="alternateBounds"/>
                    </mxGeometry>
                </mxCell>
                <mxCell id="364" style="shape=partialRectangle;connectable=0;fillColor=none;top=0;left=0;bottom=0;right=0;align=left;spacingLeft=6;overflow=hidden;" vertex="1" parent="360">
                    <mxGeometry x="268.6666666666667" width="20" height="26" as="geometry">
                        <mxRectangle width="20" height="26" as="alternateBounds"/>
                    </mxGeometry>
                </mxCell>
                <mxCell id="413" style="edgeStyle=elbowEdgeStyle;jumpStyle=arc;jumpSize=10;html=1;strokeWidth=2;fontSize=17;startArrow=ERzeroToMany;startFill=0;endArrow=ERone;endFill=0;startSize=12;endSize=12;" edge="1" parent="1" source="388" target="270">
                    <mxGeometry relative="1" as="geometry">
                        <Array as="points">
                            <mxPoint x="-1181" y="928"/>
                        </Array>
                    </mxGeometry>
                </mxCell>
                <mxCell id="388" value="quiz_tags" style="shape=table;startSize=30;container=1;collapsible=1;childLayout=tableLayout;fixedRows=1;rowLines=0;fontStyle=1;align=center;resizeLast=1;fillColor=#1ba1e2;strokeColor=#006EAF;fontColor=#ffffff;" vertex="1" parent="1">
                    <mxGeometry x="-1597.96" y="1088" width="268.6250000000002" height="93" as="geometry"/>
                </mxCell>
                <mxCell id="389" style="shape=tableRow;horizontal=0;startSize=0;swimlaneHead=0;swimlaneBody=0;fillColor=none;collapsible=0;dropTarget=0;points=[[0,0.5],[1,0.5]];portConstraint=eastwest;top=0;left=0;right=0;bottom=1;" vertex="1" parent="388">
                    <mxGeometry y="30" width="268.6250000000002" height="30" as="geometry"/>
                </mxCell>
                <mxCell id="390" value="PK FK" style="shape=partialRectangle;connectable=0;fillColor=none;top=0;left=0;bottom=0;right=0;fontStyle=1;overflow=hidden;" vertex="1" parent="389">
                    <mxGeometry width="77.29166666666669" height="30" as="geometry">
                        <mxRectangle width="77.29166666666669" height="30" as="alternateBounds"/>
                    </mxGeometry>
                </mxCell>
                <mxCell id="391" value="quiz_id" style="shape=partialRectangle;connectable=0;fillColor=none;top=0;left=0;bottom=0;right=0;align=left;spacingLeft=6;fontStyle=5;overflow=hidden;" vertex="1" parent="389">
                    <mxGeometry x="77.29166666666669" width="105.83333333333343" height="30" as="geometry">
                        <mxRectangle width="105.83333333333343" height="30" as="alternateBounds"/>
                    </mxGeometry>
                </mxCell>
                <mxCell id="392" value="uuid" style="shape=partialRectangle;connectable=0;fillColor=none;top=0;left=0;bottom=0;right=0;align=left;spacingLeft=6;fontStyle=5;overflow=hidden;" vertex="1" parent="389">
                    <mxGeometry x="183.1250000000001" width="65.50000000000011" height="30" as="geometry">
                        <mxRectangle width="65.50000000000011" height="30" as="alternateBounds"/>
                    </mxGeometry>
                </mxCell>
                <mxCell id="393" style="shape=partialRectangle;connectable=0;fillColor=none;top=0;left=0;bottom=0;right=0;align=left;spacingLeft=6;fontStyle=5;overflow=hidden;" vertex="1" parent="389">
                    <mxGeometry x="248.62500000000023" width="20" height="30" as="geometry">
                        <mxRectangle width="20" height="30" as="alternateBounds"/>
                    </mxGeometry>
                </mxCell>
                <mxCell id="394" value="" style="shape=tableRow;horizontal=0;startSize=0;swimlaneHead=0;swimlaneBody=0;fillColor=none;collapsible=0;dropTarget=0;points=[[0,0.5],[1,0.5]];portConstraint=eastwest;top=0;left=0;right=0;bottom=1;" vertex="1" parent="388">
                    <mxGeometry y="60" width="268.6250000000002" height="30" as="geometry"/>
                </mxCell>
                <mxCell id="395" value="PK FK" style="shape=partialRectangle;connectable=0;fillColor=none;top=0;left=0;bottom=0;right=0;fontStyle=1;overflow=hidden;" vertex="1" parent="394">
                    <mxGeometry width="77.29166666666669" height="30" as="geometry">
                        <mxRectangle width="77.29166666666669" height="30" as="alternateBounds"/>
                    </mxGeometry>
                </mxCell>
                <mxCell id="396" value="tag_id" style="shape=partialRectangle;connectable=0;fillColor=none;top=0;left=0;bottom=0;right=0;align=left;spacingLeft=6;fontStyle=5;overflow=hidden;" vertex="1" parent="394">
                    <mxGeometry x="77.29166666666669" width="105.83333333333343" height="30" as="geometry">
                        <mxRectangle width="105.83333333333343" height="30" as="alternateBounds"/>
                    </mxGeometry>
                </mxCell>
                <mxCell id="397" value="uuid" style="shape=partialRectangle;connectable=0;fillColor=none;top=0;left=0;bottom=0;right=0;align=left;spacingLeft=6;fontStyle=5;overflow=hidden;" vertex="1" parent="394">
                    <mxGeometry x="183.1250000000001" width="65.50000000000011" height="30" as="geometry">
                        <mxRectangle width="65.50000000000011" height="30" as="alternateBounds"/>
                    </mxGeometry>
                </mxCell>
                <mxCell id="398" style="shape=partialRectangle;connectable=0;fillColor=none;top=0;left=0;bottom=0;right=0;align=left;spacingLeft=6;fontStyle=5;overflow=hidden;" vertex="1" parent="394">
                    <mxGeometry x="248.62500000000023" width="20" height="30" as="geometry">
                        <mxRectangle width="20" height="30" as="alternateBounds"/>
                    </mxGeometry>
                </mxCell>
                <mxCell id="410" style="edgeStyle=elbowEdgeStyle;jumpStyle=arc;jumpSize=10;html=1;strokeWidth=2;fontSize=17;startArrow=ERzeroToMany;startFill=0;endArrow=ERone;endFill=0;startSize=12;endSize=12;" edge="1" parent="1" source="399" target="156">
                    <mxGeometry relative="1" as="geometry">
                        <Array as="points">
                            <mxPoint x="-694" y="1580"/>
                        </Array>
                    </mxGeometry>
                </mxCell>
                <mxCell id="399" value="flashcard_tags" style="shape=table;startSize=30;container=1;collapsible=1;childLayout=tableLayout;fixedRows=1;rowLines=0;fontStyle=1;align=center;resizeLast=1;fillColor=#1ba1e2;strokeColor=#006EAF;fontColor=#ffffff;" vertex="1" parent="1">
                    <mxGeometry x="-1238" y="1635" width="268.6250000000002" height="93" as="geometry"/>
                </mxCell>
                <mxCell id="400" style="shape=tableRow;horizontal=0;startSize=0;swimlaneHead=0;swimlaneBody=0;fillColor=none;collapsible=0;dropTarget=0;points=[[0,0.5],[1,0.5]];portConstraint=eastwest;top=0;left=0;right=0;bottom=1;" vertex="1" parent="399">
                    <mxGeometry y="30" width="268.6250000000002" height="30" as="geometry"/>
                </mxCell>
                <mxCell id="401" value="PK FK" style="shape=partialRectangle;connectable=0;fillColor=none;top=0;left=0;bottom=0;right=0;fontStyle=1;overflow=hidden;" vertex="1" parent="400">
                    <mxGeometry width="77.29166666666669" height="30" as="geometry">
                        <mxRectangle width="77.29166666666669" height="30" as="alternateBounds"/>
                    </mxGeometry>
                </mxCell>
                <mxCell id="402" value="flashcard_id" style="shape=partialRectangle;connectable=0;fillColor=none;top=0;left=0;bottom=0;right=0;align=left;spacingLeft=6;fontStyle=5;overflow=hidden;" vertex="1" parent="400">
                    <mxGeometry x="77.29166666666669" width="105.83333333333343" height="30" as="geometry">
                        <mxRectangle width="105.83333333333343" height="30" as="alternateBounds"/>
                    </mxGeometry>
                </mxCell>
                <mxCell id="403" value="uuid" style="shape=partialRectangle;connectable=0;fillColor=none;top=0;left=0;bottom=0;right=0;align=left;spacingLeft=6;fontStyle=5;overflow=hidden;" vertex="1" parent="400">
                    <mxGeometry x="183.1250000000001" width="65.50000000000011" height="30" as="geometry">
                        <mxRectangle width="65.50000000000011" height="30" as="alternateBounds"/>
                    </mxGeometry>
                </mxCell>
                <mxCell id="404" style="shape=partialRectangle;connectable=0;fillColor=none;top=0;left=0;bottom=0;right=0;align=left;spacingLeft=6;fontStyle=5;overflow=hidden;" vertex="1" parent="400">
                    <mxGeometry x="248.62500000000023" width="20" height="30" as="geometry">
                        <mxRectangle width="20" height="30" as="alternateBounds"/>
                    </mxGeometry>
                </mxCell>
                <mxCell id="405" value="" style="shape=tableRow;horizontal=0;startSize=0;swimlaneHead=0;swimlaneBody=0;fillColor=none;collapsible=0;dropTarget=0;points=[[0,0.5],[1,0.5]];portConstraint=eastwest;top=0;left=0;right=0;bottom=1;" vertex="1" parent="399">
                    <mxGeometry y="60" width="268.6250000000002" height="30" as="geometry"/>
                </mxCell>
                <mxCell id="406" value="PK FK" style="shape=partialRectangle;connectable=0;fillColor=none;top=0;left=0;bottom=0;right=0;fontStyle=1;overflow=hidden;" vertex="1" parent="405">
                    <mxGeometry width="77.29166666666669" height="30" as="geometry">
                        <mxRectangle width="77.29166666666669" height="30" as="alternateBounds"/>
                    </mxGeometry>
                </mxCell>
                <mxCell id="407" value="tag_id" style="shape=partialRectangle;connectable=0;fillColor=none;top=0;left=0;bottom=0;right=0;align=left;spacingLeft=6;fontStyle=5;overflow=hidden;" vertex="1" parent="405">
                    <mxGeometry x="77.29166666666669" width="105.83333333333343" height="30" as="geometry">
                        <mxRectangle width="105.83333333333343" height="30" as="alternateBounds"/>
                    </mxGeometry>
                </mxCell>
                <mxCell id="408" value="uuid" style="shape=partialRectangle;connectable=0;fillColor=none;top=0;left=0;bottom=0;right=0;align=left;spacingLeft=6;fontStyle=5;overflow=hidden;" vertex="1" parent="405">
                    <mxGeometry x="183.1250000000001" width="65.50000000000011" height="30" as="geometry">
                        <mxRectangle width="65.50000000000011" height="30" as="alternateBounds"/>
                    </mxGeometry>
                </mxCell>
                <mxCell id="409" style="shape=partialRectangle;connectable=0;fillColor=none;top=0;left=0;bottom=0;right=0;align=left;spacingLeft=6;fontStyle=5;overflow=hidden;" vertex="1" parent="405">
                    <mxGeometry x="248.62500000000023" width="20" height="30" as="geometry">
                        <mxRectangle width="20" height="30" as="alternateBounds"/>
                    </mxGeometry>
                </mxCell>
                <mxCell id="459" style="edgeStyle=elbowEdgeStyle;jumpStyle=arc;jumpSize=10;html=1;strokeWidth=2;fontSize=17;startArrow=ERzeroToMany;startFill=0;endArrow=ERone;endFill=0;startSize=12;endSize=12;elbow=vertical;" edge="1" parent="1" source="582" target="30">
                    <mxGeometry relative="1" as="geometry">
                        <mxPoint x="-732" y="1847" as="sourcePoint"/>
                        <Array as="points">
                            <mxPoint x="-245" y="1847"/>
                        </Array>
                    </mxGeometry>
                </mxCell>
                <mxCell id="554" style="edgeStyle=elbowEdgeStyle;jumpStyle=arc;jumpSize=12;elbow=vertical;html=1;strokeWidth=2;fontSize=17;startArrow=ERzeroToMany;startFill=0;endArrow=ERone;endFill=0;startSize=12;endSize=12;" edge="1" parent="1" source="470" target="67">
                    <mxGeometry relative="1" as="geometry"/>
                </mxCell>
                <mxCell id="470" value="flashcard_edit_logs" style="shape=table;startSize=30;container=1;collapsible=1;childLayout=tableLayout;fixedRows=1;rowLines=0;fontStyle=1;align=center;resizeLast=1;fillColor=#1ba1e2;strokeColor=#006EAF;fontColor=#ffffff;" vertex="1" parent="1">
                    <mxGeometry x="-323" y="1562" width="268.6250000000002" height="148" as="geometry"/>
                </mxCell>
                <mxCell id="549" style="shape=tableRow;horizontal=0;startSize=0;swimlaneHead=0;swimlaneBody=0;fillColor=none;collapsible=0;dropTarget=0;points=[[0,0.5],[1,0.5]];portConstraint=eastwest;top=0;left=0;right=0;bottom=1;" vertex="1" parent="470">
                    <mxGeometry y="30" width="268.6250000000002" height="30" as="geometry"/>
                </mxCell>
                <mxCell id="550" value="PK" style="shape=partialRectangle;connectable=0;fillColor=none;top=0;left=0;bottom=0;right=0;fontStyle=1;overflow=hidden;" vertex="1" parent="549">
                    <mxGeometry width="60.39999999999992" height="30" as="geometry">
                        <mxRectangle width="60.39999999999992" height="30" as="alternateBounds"/>
                    </mxGeometry>
                </mxCell>
                <mxCell id="551" value="id" style="shape=partialRectangle;connectable=0;fillColor=none;top=0;left=0;bottom=0;right=0;align=left;spacingLeft=6;fontStyle=5;overflow=hidden;" vertex="1" parent="549">
                    <mxGeometry x="60.39999999999992" width="116.80000000000001" height="30" as="geometry">
                        <mxRectangle width="116.80000000000001" height="30" as="alternateBounds"/>
                    </mxGeometry>
                </mxCell>
                <mxCell id="552" value="uuid" style="shape=partialRectangle;connectable=0;fillColor=none;top=0;left=0;bottom=0;right=0;align=left;spacingLeft=6;fontStyle=5;overflow=hidden;" vertex="1" parent="549">
                    <mxGeometry x="177.19999999999993" width="71.4250000000003" height="30" as="geometry">
                        <mxRectangle width="71.4250000000003" height="30" as="alternateBounds"/>
                    </mxGeometry>
                </mxCell>
                <mxCell id="553" style="shape=partialRectangle;connectable=0;fillColor=none;top=0;left=0;bottom=0;right=0;align=left;spacingLeft=6;fontStyle=5;overflow=hidden;" vertex="1" parent="549">
                    <mxGeometry x="248.62500000000023" width="20" height="30" as="geometry">
                        <mxRectangle width="20" height="30" as="alternateBounds"/>
                    </mxGeometry>
                </mxCell>
                <mxCell id="471" style="shape=tableRow;horizontal=0;startSize=0;swimlaneHead=0;swimlaneBody=0;fillColor=none;collapsible=0;dropTarget=0;points=[[0,0.5],[1,0.5]];portConstraint=eastwest;top=0;left=0;right=0;bottom=1;" vertex="1" parent="470">
                    <mxGeometry y="60" width="268.6250000000002" height="30" as="geometry"/>
                </mxCell>
                <mxCell id="472" value="FK" style="shape=partialRectangle;connectable=0;fillColor=none;top=0;left=0;bottom=0;right=0;fontStyle=1;overflow=hidden;" vertex="1" parent="471">
                    <mxGeometry width="60.39999999999992" height="30" as="geometry">
                        <mxRectangle width="60.39999999999992" height="30" as="alternateBounds"/>
                    </mxGeometry>
                </mxCell>
                <mxCell id="473" value="editor_id" style="shape=partialRectangle;connectable=0;fillColor=none;top=0;left=0;bottom=0;right=0;align=left;spacingLeft=6;fontStyle=5;overflow=hidden;" vertex="1" parent="471">
                    <mxGeometry x="60.39999999999992" width="116.80000000000001" height="30" as="geometry">
                        <mxRectangle width="116.80000000000001" height="30" as="alternateBounds"/>
                    </mxGeometry>
                </mxCell>
                <mxCell id="474" value="uuid" style="shape=partialRectangle;connectable=0;fillColor=none;top=0;left=0;bottom=0;right=0;align=left;spacingLeft=6;fontStyle=5;overflow=hidden;" vertex="1" parent="471">
                    <mxGeometry x="177.19999999999993" width="71.4250000000003" height="30" as="geometry">
                        <mxRectangle width="71.4250000000003" height="30" as="alternateBounds"/>
                    </mxGeometry>
                </mxCell>
                <mxCell id="475" style="shape=partialRectangle;connectable=0;fillColor=none;top=0;left=0;bottom=0;right=0;align=left;spacingLeft=6;fontStyle=5;overflow=hidden;" vertex="1" parent="471">
                    <mxGeometry x="248.62500000000023" width="20" height="30" as="geometry">
                        <mxRectangle width="20" height="30" as="alternateBounds"/>
                    </mxGeometry>
                </mxCell>
                <mxCell id="486" value="" style="shape=tableRow;horizontal=0;startSize=0;swimlaneHead=0;swimlaneBody=0;fillColor=none;collapsible=0;dropTarget=0;points=[[0,0.5],[1,0.5]];portConstraint=eastwest;top=0;left=0;right=0;bottom=0;" vertex="1" parent="470">
                    <mxGeometry y="90" width="268.6250000000002" height="29" as="geometry"/>
                </mxCell>
                <mxCell id="487" value="" style="shape=partialRectangle;connectable=0;fillColor=none;top=0;left=0;bottom=0;right=0;editable=1;overflow=hidden;" vertex="1" parent="486">
                    <mxGeometry width="60.39999999999992" height="29" as="geometry">
                        <mxRectangle width="60.39999999999992" height="29" as="alternateBounds"/>
                    </mxGeometry>
                </mxCell>
                <mxCell id="488" value="description" style="shape=partialRectangle;connectable=0;fillColor=none;top=0;left=0;bottom=0;right=0;align=left;spacingLeft=6;overflow=hidden;" vertex="1" parent="486">
                    <mxGeometry x="60.39999999999992" width="116.80000000000001" height="29" as="geometry">
                        <mxRectangle width="116.80000000000001" height="29" as="alternateBounds"/>
                    </mxGeometry>
                </mxCell>
                <mxCell id="489" value="text" style="shape=partialRectangle;connectable=0;fillColor=none;top=0;left=0;bottom=0;right=0;align=left;spacingLeft=6;overflow=hidden;" vertex="1" parent="486">
                    <mxGeometry x="177.19999999999993" width="71.4250000000003" height="29" as="geometry">
                        <mxRectangle width="71.4250000000003" height="29" as="alternateBounds"/>
                    </mxGeometry>
                </mxCell>
                <mxCell id="490" value="" style="shape=partialRectangle;connectable=0;fillColor=none;top=0;left=0;bottom=0;right=0;align=left;spacingLeft=6;overflow=hidden;" vertex="1" parent="486">
                    <mxGeometry x="248.62500000000023" width="20" height="29" as="geometry">
                        <mxRectangle width="20" height="29" as="alternateBounds"/>
                    </mxGeometry>
                </mxCell>
                <mxCell id="610" style="shape=tableRow;horizontal=0;startSize=0;swimlaneHead=0;swimlaneBody=0;fillColor=none;collapsible=0;dropTarget=0;points=[[0,0.5],[1,0.5]];portConstraint=eastwest;top=0;left=0;right=0;bottom=0;" vertex="1" parent="470">
                    <mxGeometry y="119" width="268.6250000000002" height="29" as="geometry"/>
                </mxCell>
                <mxCell id="611" style="shape=partialRectangle;connectable=0;fillColor=none;top=0;left=0;bottom=0;right=0;editable=1;overflow=hidden;" vertex="1" parent="610">
                    <mxGeometry width="60.39999999999992" height="29" as="geometry">
                        <mxRectangle width="60.39999999999992" height="29" as="alternateBounds"/>
                    </mxGeometry>
                </mxCell>
                <mxCell id="612" value="edited_at" style="shape=partialRectangle;connectable=0;fillColor=none;top=0;left=0;bottom=0;right=0;align=left;spacingLeft=6;overflow=hidden;" vertex="1" parent="610">
                    <mxGeometry x="60.39999999999992" width="116.80000000000001" height="29" as="geometry">
                        <mxRectangle width="116.80000000000001" height="29" as="alternateBounds"/>
                    </mxGeometry>
                </mxCell>
                <mxCell id="613" value="DateTime" style="shape=partialRectangle;connectable=0;fillColor=none;top=0;left=0;bottom=0;right=0;align=left;spacingLeft=6;overflow=hidden;" vertex="1" parent="610">
                    <mxGeometry x="177.19999999999993" width="71.4250000000003" height="29" as="geometry">
                        <mxRectangle width="71.4250000000003" height="29" as="alternateBounds"/>
                    </mxGeometry>
                </mxCell>
                <mxCell id="614" style="shape=partialRectangle;connectable=0;fillColor=none;top=0;left=0;bottom=0;right=0;align=left;spacingLeft=6;overflow=hidden;" vertex="1" parent="610">
                    <mxGeometry x="248.62500000000023" width="20" height="29" as="geometry">
                        <mxRectangle width="20" height="29" as="alternateBounds"/>
                    </mxGeometry>
                </mxCell>
                <mxCell id="499" value="&lt;&lt;Enum&gt;&gt;&#10;ContributorRole" style="shape=table;startSize=35;container=1;collapsible=1;childLayout=tableLayout;fixedRows=1;rowLines=0;fontStyle=1;align=center;resizeLast=1;" vertex="1" parent="1">
                    <mxGeometry x="17" y="672" width="166" height="123" as="geometry"/>
                </mxCell>
                <mxCell id="535" style="shape=tableRow;horizontal=0;startSize=0;swimlaneHead=0;swimlaneBody=0;fillColor=none;collapsible=0;dropTarget=0;points=[[0,0.5],[1,0.5]];portConstraint=eastwest;top=0;left=0;right=0;bottom=0;" vertex="1" parent="499">
                    <mxGeometry y="35" width="166" height="29" as="geometry"/>
                </mxCell>
                <mxCell id="536" value="PUBLIC" style="shape=partialRectangle;connectable=0;fillColor=none;top=0;left=0;bottom=0;right=0;editable=1;overflow=hidden;" vertex="1" parent="535">
                    <mxGeometry width="166" height="29" as="geometry">
                        <mxRectangle width="166" height="29" as="alternateBounds"/>
                    </mxGeometry>
                </mxCell>
                <mxCell id="502" style="shape=tableRow;horizontal=0;startSize=0;swimlaneHead=0;swimlaneBody=0;fillColor=none;collapsible=0;dropTarget=0;points=[[0,0.5],[1,0.5]];portConstraint=eastwest;top=0;left=0;right=0;bottom=0;" vertex="1" parent="499">
                    <mxGeometry y="64" width="166" height="29" as="geometry"/>
                </mxCell>
                <mxCell id="503" value="EDITOR" style="shape=partialRectangle;connectable=0;fillColor=none;top=0;left=0;bottom=0;right=0;editable=1;overflow=hidden;" vertex="1" parent="502">
                    <mxGeometry width="166" height="29" as="geometry">
                        <mxRectangle width="166" height="29" as="alternateBounds"/>
                    </mxGeometry>
                </mxCell>
                <mxCell id="504" value="" style="shape=tableRow;horizontal=0;startSize=0;swimlaneHead=0;swimlaneBody=0;fillColor=none;collapsible=0;dropTarget=0;points=[[0,0.5],[1,0.5]];portConstraint=eastwest;top=0;left=0;right=0;bottom=0;" vertex="1" parent="499">
                    <mxGeometry y="93" width="166" height="30" as="geometry"/>
                </mxCell>
                <mxCell id="505" value="OWNER" style="shape=partialRectangle;connectable=0;fillColor=none;top=0;left=0;bottom=0;right=0;editable=1;overflow=hidden;" vertex="1" parent="504">
                    <mxGeometry width="166" height="30" as="geometry">
                        <mxRectangle width="166" height="30" as="alternateBounds"/>
                    </mxGeometry>
                </mxCell>
                <mxCell id="538" style="edgeStyle=elbowEdgeStyle;jumpStyle=arc;jumpSize=12;elbow=vertical;html=1;dashed=1;strokeWidth=1;fontSize=17;startArrow=none;startFill=0;endArrow=none;endFill=0;startSize=12;endSize=12;fillColor=#ffe6cc;strokeColor=#d79b00;" edge="1" parent="1" source="537" target="499">
                    <mxGeometry relative="1" as="geometry"/>
                </mxCell>
                <mxCell id="537" value="Publici is placeholder,&lt;br&gt;used for someone who was editor, but removed&amp;nbsp;" style="shape=note;strokeWidth=2;fontSize=14;size=20;whiteSpace=wrap;html=1;fillColor=#fff2cc;strokeColor=#d6b656;fontColor=#666600;" vertex="1" parent="1">
                    <mxGeometry x="-272" y="604" width="385" height="41" as="geometry"/>
                </mxCell>
                <mxCell id="576" style="edgeStyle=elbowEdgeStyle;jumpStyle=arc;jumpSize=12;html=1;strokeWidth=2;fontSize=17;startArrow=ERzeroToMany;startFill=0;endArrow=ERone;endFill=0;startSize=12;endSize=12;" edge="1" parent="1" source="555" target="312">
                    <mxGeometry relative="1" as="geometry">
                        <Array as="points">
                            <mxPoint x="-516" y="678"/>
                            <mxPoint x="-507" y="634"/>
                            <mxPoint x="-474" y="723"/>
                        </Array>
                    </mxGeometry>
                </mxCell>
                <mxCell id="555" value="quiz_edit_logs" style="shape=table;startSize=30;container=1;collapsible=1;childLayout=tableLayout;fixedRows=1;rowLines=0;fontStyle=1;align=center;resizeLast=1;fillColor=#1ba1e2;strokeColor=#006EAF;fontColor=#ffffff;" vertex="1" parent="1">
                    <mxGeometry x="-840" y="583" width="268.6250000000002" height="148" as="geometry"/>
                </mxCell>
                <mxCell id="556" style="shape=tableRow;horizontal=0;startSize=0;swimlaneHead=0;swimlaneBody=0;fillColor=none;collapsible=0;dropTarget=0;points=[[0,0.5],[1,0.5]];portConstraint=eastwest;top=0;left=0;right=0;bottom=1;" vertex="1" parent="555">
                    <mxGeometry y="30" width="268.6250000000002" height="30" as="geometry"/>
                </mxCell>
                <mxCell id="557" value="PK" style="shape=partialRectangle;connectable=0;fillColor=none;top=0;left=0;bottom=0;right=0;fontStyle=1;overflow=hidden;" vertex="1" parent="556">
                    <mxGeometry width="60.39999999999992" height="30" as="geometry">
                        <mxRectangle width="60.39999999999992" height="30" as="alternateBounds"/>
                    </mxGeometry>
                </mxCell>
                <mxCell id="558" value="id" style="shape=partialRectangle;connectable=0;fillColor=none;top=0;left=0;bottom=0;right=0;align=left;spacingLeft=6;fontStyle=5;overflow=hidden;" vertex="1" parent="556">
                    <mxGeometry x="60.39999999999992" width="116.80000000000001" height="30" as="geometry">
                        <mxRectangle width="116.80000000000001" height="30" as="alternateBounds"/>
                    </mxGeometry>
                </mxCell>
                <mxCell id="559" value="uuid" style="shape=partialRectangle;connectable=0;fillColor=none;top=0;left=0;bottom=0;right=0;align=left;spacingLeft=6;fontStyle=5;overflow=hidden;" vertex="1" parent="556">
                    <mxGeometry x="177.19999999999993" width="71.4250000000003" height="30" as="geometry">
                        <mxRectangle width="71.4250000000003" height="30" as="alternateBounds"/>
                    </mxGeometry>
                </mxCell>
                <mxCell id="560" style="shape=partialRectangle;connectable=0;fillColor=none;top=0;left=0;bottom=0;right=0;align=left;spacingLeft=6;fontStyle=5;overflow=hidden;" vertex="1" parent="556">
                    <mxGeometry x="248.62500000000023" width="20" height="30" as="geometry">
                        <mxRectangle width="20" height="30" as="alternateBounds"/>
                    </mxGeometry>
                </mxCell>
                <mxCell id="561" style="shape=tableRow;horizontal=0;startSize=0;swimlaneHead=0;swimlaneBody=0;fillColor=none;collapsible=0;dropTarget=0;points=[[0,0.5],[1,0.5]];portConstraint=eastwest;top=0;left=0;right=0;bottom=1;" vertex="1" parent="555">
                    <mxGeometry y="60" width="268.6250000000002" height="30" as="geometry"/>
                </mxCell>
                <mxCell id="562" value="FK" style="shape=partialRectangle;connectable=0;fillColor=none;top=0;left=0;bottom=0;right=0;fontStyle=1;overflow=hidden;" vertex="1" parent="561">
                    <mxGeometry width="60.39999999999992" height="30" as="geometry">
                        <mxRectangle width="60.39999999999992" height="30" as="alternateBounds"/>
                    </mxGeometry>
                </mxCell>
                <mxCell id="563" value="editor_id" style="shape=partialRectangle;connectable=0;fillColor=none;top=0;left=0;bottom=0;right=0;align=left;spacingLeft=6;fontStyle=5;overflow=hidden;" vertex="1" parent="561">
                    <mxGeometry x="60.39999999999992" width="116.80000000000001" height="30" as="geometry">
                        <mxRectangle width="116.80000000000001" height="30" as="alternateBounds"/>
                    </mxGeometry>
                </mxCell>
                <mxCell id="564" value="uuid" style="shape=partialRectangle;connectable=0;fillColor=none;top=0;left=0;bottom=0;right=0;align=left;spacingLeft=6;fontStyle=5;overflow=hidden;" vertex="1" parent="561">
                    <mxGeometry x="177.19999999999993" width="71.4250000000003" height="30" as="geometry">
                        <mxRectangle width="71.4250000000003" height="30" as="alternateBounds"/>
                    </mxGeometry>
                </mxCell>
                <mxCell id="565" style="shape=partialRectangle;connectable=0;fillColor=none;top=0;left=0;bottom=0;right=0;align=left;spacingLeft=6;fontStyle=5;overflow=hidden;" vertex="1" parent="561">
                    <mxGeometry x="248.62500000000023" width="20" height="30" as="geometry">
                        <mxRectangle width="20" height="30" as="alternateBounds"/>
                    </mxGeometry>
                </mxCell>
                <mxCell id="566" value="" style="shape=tableRow;horizontal=0;startSize=0;swimlaneHead=0;swimlaneBody=0;fillColor=none;collapsible=0;dropTarget=0;points=[[0,0.5],[1,0.5]];portConstraint=eastwest;top=0;left=0;right=0;bottom=0;" vertex="1" parent="555">
                    <mxGeometry y="90" width="268.6250000000002" height="29" as="geometry"/>
                </mxCell>
                <mxCell id="567" value="" style="shape=partialRectangle;connectable=0;fillColor=none;top=0;left=0;bottom=0;right=0;editable=1;overflow=hidden;" vertex="1" parent="566">
                    <mxGeometry width="60.39999999999992" height="29" as="geometry">
                        <mxRectangle width="60.39999999999992" height="29" as="alternateBounds"/>
                    </mxGeometry>
                </mxCell>
                <mxCell id="568" value="description" style="shape=partialRectangle;connectable=0;fillColor=none;top=0;left=0;bottom=0;right=0;align=left;spacingLeft=6;overflow=hidden;" vertex="1" parent="566">
                    <mxGeometry x="60.39999999999992" width="116.80000000000001" height="29" as="geometry">
                        <mxRectangle width="116.80000000000001" height="29" as="alternateBounds"/>
                    </mxGeometry>
                </mxCell>
                <mxCell id="569" value="text" style="shape=partialRectangle;connectable=0;fillColor=none;top=0;left=0;bottom=0;right=0;align=left;spacingLeft=6;overflow=hidden;" vertex="1" parent="566">
                    <mxGeometry x="177.19999999999993" width="71.4250000000003" height="29" as="geometry">
                        <mxRectangle width="71.4250000000003" height="29" as="alternateBounds"/>
                    </mxGeometry>
                </mxCell>
                <mxCell id="570" value="" style="shape=partialRectangle;connectable=0;fillColor=none;top=0;left=0;bottom=0;right=0;align=left;spacingLeft=6;overflow=hidden;" vertex="1" parent="566">
                    <mxGeometry x="248.62500000000023" width="20" height="29" as="geometry">
                        <mxRectangle width="20" height="29" as="alternateBounds"/>
                    </mxGeometry>
                </mxCell>
                <mxCell id="615" style="shape=tableRow;horizontal=0;startSize=0;swimlaneHead=0;swimlaneBody=0;fillColor=none;collapsible=0;dropTarget=0;points=[[0,0.5],[1,0.5]];portConstraint=eastwest;top=0;left=0;right=0;bottom=0;" vertex="1" parent="555">
                    <mxGeometry y="119" width="268.6250000000002" height="29" as="geometry"/>
                </mxCell>
                <mxCell id="616" style="shape=partialRectangle;connectable=0;fillColor=none;top=0;left=0;bottom=0;right=0;editable=1;overflow=hidden;" vertex="1" parent="615">
                    <mxGeometry width="60.39999999999992" height="29" as="geometry">
                        <mxRectangle width="60.39999999999992" height="29" as="alternateBounds"/>
                    </mxGeometry>
                </mxCell>
                <mxCell id="617" value="edited_at" style="shape=partialRectangle;connectable=0;fillColor=none;top=0;left=0;bottom=0;right=0;align=left;spacingLeft=6;overflow=hidden;" vertex="1" parent="615">
                    <mxGeometry x="60.39999999999992" width="116.80000000000001" height="29" as="geometry">
                        <mxRectangle width="116.80000000000001" height="29" as="alternateBounds"/>
                    </mxGeometry>
                </mxCell>
                <mxCell id="618" value="DateTime" style="shape=partialRectangle;connectable=0;fillColor=none;top=0;left=0;bottom=0;right=0;align=left;spacingLeft=6;overflow=hidden;" vertex="1" parent="615">
                    <mxGeometry x="177.19999999999993" width="71.4250000000003" height="29" as="geometry">
                        <mxRectangle width="71.4250000000003" height="29" as="alternateBounds"/>
                    </mxGeometry>
                </mxCell>
                <mxCell id="619" style="shape=partialRectangle;connectable=0;fillColor=none;top=0;left=0;bottom=0;right=0;align=left;spacingLeft=6;overflow=hidden;" vertex="1" parent="615">
                    <mxGeometry x="248.62500000000023" width="20" height="29" as="geometry">
                        <mxRectangle width="20" height="29" as="alternateBounds"/>
                    </mxGeometry>
                </mxCell>
                <mxCell id="582" value="tag_edit_logs" style="shape=table;startSize=30;container=1;collapsible=1;childLayout=tableLayout;fixedRows=1;rowLines=0;fontStyle=1;align=center;resizeLast=1;fillColor=#1ba1e2;strokeColor=#006EAF;fontColor=#ffffff;" vertex="1" parent="1">
                    <mxGeometry x="-1153" y="1815" width="344" height="178" as="geometry"/>
                </mxCell>
                <mxCell id="583" style="shape=tableRow;horizontal=0;startSize=0;swimlaneHead=0;swimlaneBody=0;fillColor=none;collapsible=0;dropTarget=0;points=[[0,0.5],[1,0.5]];portConstraint=eastwest;top=0;left=0;right=0;bottom=1;" vertex="1" parent="582">
                    <mxGeometry y="30" width="344" height="30" as="geometry"/>
                </mxCell>
                <mxCell id="584" value="PK" style="shape=partialRectangle;connectable=0;fillColor=none;top=0;left=0;bottom=0;right=0;fontStyle=1;overflow=hidden;" vertex="1" parent="583">
                    <mxGeometry width="60.39999999999992" height="30" as="geometry">
                        <mxRectangle width="60.39999999999992" height="30" as="alternateBounds"/>
                    </mxGeometry>
                </mxCell>
                <mxCell id="585" value="id" style="shape=partialRectangle;connectable=0;fillColor=none;top=0;left=0;bottom=0;right=0;align=left;spacingLeft=6;fontStyle=5;overflow=hidden;" vertex="1" parent="583">
                    <mxGeometry x="60.39999999999992" width="116.80000000000001" height="30" as="geometry">
                        <mxRectangle width="116.80000000000001" height="30" as="alternateBounds"/>
                    </mxGeometry>
                </mxCell>
                <mxCell id="586" value="uuid" style="shape=partialRectangle;connectable=0;fillColor=none;top=0;left=0;bottom=0;right=0;align=left;spacingLeft=6;fontStyle=5;overflow=hidden;" vertex="1" parent="583">
                    <mxGeometry x="177.19999999999993" width="71.4250000000003" height="30" as="geometry">
                        <mxRectangle width="71.4250000000003" height="30" as="alternateBounds"/>
                    </mxGeometry>
                </mxCell>
                <mxCell id="587" style="shape=partialRectangle;connectable=0;fillColor=none;top=0;left=0;bottom=0;right=0;align=left;spacingLeft=6;fontStyle=5;overflow=hidden;" vertex="1" parent="583">
                    <mxGeometry x="248.62500000000023" width="95.37499999999977" height="30" as="geometry">
                        <mxRectangle width="95.37499999999977" height="30" as="alternateBounds"/>
                    </mxGeometry>
                </mxCell>
                <mxCell id="600" style="shape=tableRow;horizontal=0;startSize=0;swimlaneHead=0;swimlaneBody=0;fillColor=none;collapsible=0;dropTarget=0;points=[[0,0.5],[1,0.5]];portConstraint=eastwest;top=0;left=0;right=0;bottom=1;" vertex="1" parent="582">
                    <mxGeometry y="60" width="344" height="30" as="geometry"/>
                </mxCell>
                <mxCell id="601" value="FK" style="shape=partialRectangle;connectable=0;fillColor=none;top=0;left=0;bottom=0;right=0;fontStyle=1;overflow=hidden;" vertex="1" parent="600">
                    <mxGeometry width="60.39999999999992" height="30" as="geometry">
                        <mxRectangle width="60.39999999999992" height="30" as="alternateBounds"/>
                    </mxGeometry>
                </mxCell>
                <mxCell id="602" value="tag_id" style="shape=partialRectangle;connectable=0;fillColor=none;top=0;left=0;bottom=0;right=0;align=left;spacingLeft=6;fontStyle=5;overflow=hidden;" vertex="1" parent="600">
                    <mxGeometry x="60.39999999999992" width="116.80000000000001" height="30" as="geometry">
                        <mxRectangle width="116.80000000000001" height="30" as="alternateBounds"/>
                    </mxGeometry>
                </mxCell>
                <mxCell id="603" value="uuid" style="shape=partialRectangle;connectable=0;fillColor=none;top=0;left=0;bottom=0;right=0;align=left;spacingLeft=6;fontStyle=5;overflow=hidden;" vertex="1" parent="600">
                    <mxGeometry x="177.19999999999993" width="71.4250000000003" height="30" as="geometry">
                        <mxRectangle width="71.4250000000003" height="30" as="alternateBounds"/>
                    </mxGeometry>
                </mxCell>
                <mxCell id="604" style="shape=partialRectangle;connectable=0;fillColor=none;top=0;left=0;bottom=0;right=0;align=left;spacingLeft=6;fontStyle=5;overflow=hidden;" vertex="1" parent="600">
                    <mxGeometry x="248.62500000000023" width="95.37499999999977" height="30" as="geometry">
                        <mxRectangle width="95.37499999999977" height="30" as="alternateBounds"/>
                    </mxGeometry>
                </mxCell>
                <mxCell id="588" style="shape=tableRow;horizontal=0;startSize=0;swimlaneHead=0;swimlaneBody=0;fillColor=none;collapsible=0;dropTarget=0;points=[[0,0.5],[1,0.5]];portConstraint=eastwest;top=0;left=0;right=0;bottom=1;" vertex="1" parent="582">
                    <mxGeometry y="90" width="344" height="30" as="geometry"/>
                </mxCell>
                <mxCell id="589" value="FK" style="shape=partialRectangle;connectable=0;fillColor=none;top=0;left=0;bottom=0;right=0;fontStyle=1;overflow=hidden;" vertex="1" parent="588">
                    <mxGeometry width="60.39999999999992" height="30" as="geometry">
                        <mxRectangle width="60.39999999999992" height="30" as="alternateBounds"/>
                    </mxGeometry>
                </mxCell>
                <mxCell id="590" value="editor_id" style="shape=partialRectangle;connectable=0;fillColor=none;top=0;left=0;bottom=0;right=0;align=left;spacingLeft=6;fontStyle=5;overflow=hidden;" vertex="1" parent="588">
                    <mxGeometry x="60.39999999999992" width="116.80000000000001" height="30" as="geometry">
                        <mxRectangle width="116.80000000000001" height="30" as="alternateBounds"/>
                    </mxGeometry>
                </mxCell>
                <mxCell id="591" value="uuid?" style="shape=partialRectangle;connectable=0;fillColor=none;top=0;left=0;bottom=0;right=0;align=left;spacingLeft=6;fontStyle=5;overflow=hidden;" vertex="1" parent="588">
                    <mxGeometry x="177.19999999999993" width="71.4250000000003" height="30" as="geometry">
                        <mxRectangle width="71.4250000000003" height="30" as="alternateBounds"/>
                    </mxGeometry>
                </mxCell>
                <mxCell id="592" value="Cascade Null" style="shape=partialRectangle;connectable=0;fillColor=none;top=0;left=0;bottom=0;right=0;align=left;spacingLeft=6;fontStyle=5;overflow=hidden;" vertex="1" parent="588">
                    <mxGeometry x="248.62500000000023" width="95.37499999999977" height="30" as="geometry">
                        <mxRectangle width="95.37499999999977" height="30" as="alternateBounds"/>
                    </mxGeometry>
                </mxCell>
                <mxCell id="593" value="" style="shape=tableRow;horizontal=0;startSize=0;swimlaneHead=0;swimlaneBody=0;fillColor=none;collapsible=0;dropTarget=0;points=[[0,0.5],[1,0.5]];portConstraint=eastwest;top=0;left=0;right=0;bottom=0;" vertex="1" parent="582">
                    <mxGeometry y="120" width="344" height="29" as="geometry"/>
                </mxCell>
                <mxCell id="594" value="" style="shape=partialRectangle;connectable=0;fillColor=none;top=0;left=0;bottom=0;right=0;editable=1;overflow=hidden;" vertex="1" parent="593">
                    <mxGeometry width="60.39999999999992" height="29" as="geometry">
                        <mxRectangle width="60.39999999999992" height="29" as="alternateBounds"/>
                    </mxGeometry>
                </mxCell>
                <mxCell id="595" value="description" style="shape=partialRectangle;connectable=0;fillColor=none;top=0;left=0;bottom=0;right=0;align=left;spacingLeft=6;overflow=hidden;" vertex="1" parent="593">
                    <mxGeometry x="60.39999999999992" width="116.80000000000001" height="29" as="geometry">
                        <mxRectangle width="116.80000000000001" height="29" as="alternateBounds"/>
                    </mxGeometry>
                </mxCell>
                <mxCell id="596" value="text" style="shape=partialRectangle;connectable=0;fillColor=none;top=0;left=0;bottom=0;right=0;align=left;spacingLeft=6;overflow=hidden;" vertex="1" parent="593">
                    <mxGeometry x="177.19999999999993" width="71.4250000000003" height="29" as="geometry">
                        <mxRectangle width="71.4250000000003" height="29" as="alternateBounds"/>
                    </mxGeometry>
                </mxCell>
                <mxCell id="597" value="" style="shape=partialRectangle;connectable=0;fillColor=none;top=0;left=0;bottom=0;right=0;align=left;spacingLeft=6;overflow=hidden;" vertex="1" parent="593">
                    <mxGeometry x="248.62500000000023" width="95.37499999999977" height="29" as="geometry">
                        <mxRectangle width="95.37499999999977" height="29" as="alternateBounds"/>
                    </mxGeometry>
                </mxCell>
                <mxCell id="605" style="shape=tableRow;horizontal=0;startSize=0;swimlaneHead=0;swimlaneBody=0;fillColor=none;collapsible=0;dropTarget=0;points=[[0,0.5],[1,0.5]];portConstraint=eastwest;top=0;left=0;right=0;bottom=0;" vertex="1" parent="582">
                    <mxGeometry y="149" width="344" height="29" as="geometry"/>
                </mxCell>
                <mxCell id="606" style="shape=partialRectangle;connectable=0;fillColor=none;top=0;left=0;bottom=0;right=0;editable=1;overflow=hidden;" vertex="1" parent="605">
                    <mxGeometry width="60.39999999999992" height="29" as="geometry">
                        <mxRectangle width="60.39999999999992" height="29" as="alternateBounds"/>
                    </mxGeometry>
                </mxCell>
                <mxCell id="607" value="edited_at" style="shape=partialRectangle;connectable=0;fillColor=none;top=0;left=0;bottom=0;right=0;align=left;spacingLeft=6;overflow=hidden;" vertex="1" parent="605">
                    <mxGeometry x="60.39999999999992" width="116.80000000000001" height="29" as="geometry">
                        <mxRectangle width="116.80000000000001" height="29" as="alternateBounds"/>
                    </mxGeometry>
                </mxCell>
                <mxCell id="608" value="DateTime" style="shape=partialRectangle;connectable=0;fillColor=none;top=0;left=0;bottom=0;right=0;align=left;spacingLeft=6;overflow=hidden;" vertex="1" parent="605">
                    <mxGeometry x="177.19999999999993" width="71.4250000000003" height="29" as="geometry">
                        <mxRectangle width="71.4250000000003" height="29" as="alternateBounds"/>
                    </mxGeometry>
                </mxCell>
                <mxCell id="609" style="shape=partialRectangle;connectable=0;fillColor=none;top=0;left=0;bottom=0;right=0;align=left;spacingLeft=6;overflow=hidden;" vertex="1" parent="605">
                    <mxGeometry x="248.62500000000023" width="95.37499999999977" height="29" as="geometry">
                        <mxRectangle width="95.37499999999977" height="29" as="alternateBounds"/>
                    </mxGeometry>
                </mxCell>
                <mxCell id="599" style="edgeStyle=elbowEdgeStyle;jumpStyle=arc;jumpSize=12;html=1;strokeWidth=1;fontSize=17;startArrow=none;startFill=0;endArrow=none;endFill=0;startSize=12;endSize=12;dashed=1;fillColor=#ffe6cc;strokeColor=#d79b00;" edge="1" parent="1" source="598" target="582">
                    <mxGeometry relative="1" as="geometry">
                        <Array as="points">
                            <mxPoint x="-946" y="1787"/>
                        </Array>
                    </mxGeometry>
                </mxCell>
                <mxCell id="598" value="Anyone can edit tags.." style="shape=note;strokeWidth=2;fontSize=14;size=20;whiteSpace=wrap;html=1;fillColor=#fff2cc;strokeColor=#d6b656;fontColor=#666600;" vertex="1" parent="1">
                    <mxGeometry x="-840" y="1742" width="189" height="41" as="geometry"/>
                </mxCell>
            </root>
        </mxGraphModel>
    </diagram>
</mxfile>